{"glyphs":{"0":{"ha":724,"x_min":54,"x_max":669,"o":"m 135 101 q 94 165 135 101 q 54 472 54 229 q 135 843 54 715 q 361 971 215 971 q 588 843 507 971 q 669 472 669 714 q 588 101 669 229 q 361 -28 507 -28 q 135 101 215 -28 m 169 812 q 135 754 169 812 q 102 472 102 696 q 169 131 102 249 q 362 14 236 14 q 556 131 489 14 q 623 472 623 248 q 556 813 623 697 q 362 929 489 929 q 169 812 236 929 z "},"1":{"ha":724,"x_min":140,"x_max":428,"o":"m 140 728 l 140 768 q 382 943 354 772 l 428 943 l 428 0 l 382 0 l 382 823 q 153 728 298 728 l 140 728 z "},"2":{"ha":724,"x_min":69,"x_max":650,"o":"m 69 0 l 69 68 q 103 215 69 162 q 301 386 149 289 q 386 436 328 403 q 477 492 444 469 q 533 539 510 514 q 600 705 600 607 q 540 867 600 807 q 379 926 479 926 q 210 863 273 926 q 146 690 146 799 l 146 675 l 97 675 l 97 688 q 174 894 97 819 q 379 970 252 970 q 575 898 501 970 q 650 710 650 825 q 619 580 650 636 q 544 488 589 524 q 412 400 498 452 q 180 236 247 302 q 113 82 113 171 q 115 41 113 56 l 644 41 l 644 0 l 69 0 z "},"3":{"ha":724,"x_min":64,"x_max":661,"o":"m 64 279 l 64 286 l 111 286 l 111 282 q 174 89 111 157 q 351 20 237 20 q 539 85 467 20 q 612 257 612 151 q 321 476 612 477 l 293 476 l 293 517 q 310 516 298 517 q 325 515 321 515 q 516 572 448 515 q 583 730 583 629 q 525 874 583 822 q 363 926 467 926 q 195 864 256 926 q 135 692 135 802 l 135 685 l 92 685 l 92 689 q 164 895 92 823 q 372 968 237 968 q 561 903 489 968 q 632 732 632 838 q 589 585 632 647 q 471 500 546 524 q 610 417 559 480 q 661 262 661 354 q 576 55 661 135 q 353 -25 492 -25 q 140 55 216 -25 q 64 279 64 135 z "},"4":{"ha":724,"x_min":65,"x_max":660,"o":"m 65 252 l 65 296 l 513 943 l 553 943 l 553 293 l 660 293 l 660 252 l 553 252 l 553 0 l 509 0 l 509 252 l 65 252 m 113 293 l 510 293 l 510 865 l 113 293 z "},"5":{"ha":724,"x_min":66,"x_max":657,"o":"m 66 243 l 111 243 q 184 73 122 132 q 349 14 245 14 q 539 88 469 14 q 610 289 610 163 q 539 479 610 408 q 355 550 469 550 q 138 450 216 550 l 100 450 l 178 943 l 618 943 l 618 901 l 214 901 l 154 524 q 364 590 237 590 q 575 506 493 590 q 657 283 657 421 q 574 56 657 142 q 351 -29 490 -29 q 154 42 229 -29 q 66 243 79 114 z "},"6":{"ha":724,"x_min":65,"x_max":660,"o":"m 65 449 q 396 968 65 968 q 570 907 505 968 q 647 734 636 846 l 603 734 q 387 925 575 925 q 113 460 112 925 q 114 390 113 414 q 210 554 140 496 q 378 612 279 612 q 583 526 505 612 q 660 293 660 440 q 580 60 660 147 q 379 -28 500 -28 q 65 449 65 -27 m 139 294 q 203 92 139 167 q 370 17 267 17 q 545 91 479 17 q 611 293 611 164 q 547 497 611 422 q 376 571 482 571 q 205 496 271 571 q 139 294 139 420 z "},"7":{"ha":724,"x_min":81,"x_max":643,"o":"m 81 899 l 81 943 l 643 943 l 643 897 q 260 0 349 547 l 214 0 q 586 899 284 501 l 81 899 z "},"8":{"ha":724,"x_min":61,"x_max":663,"o":"m 61 262 q 244 518 61 453 q 100 728 100 579 q 171 903 100 836 q 361 970 243 970 q 552 904 481 970 q 623 728 623 838 q 479 518 623 582 q 663 268 663 458 q 579 53 663 133 q 357 -26 496 -26 q 143 54 226 -26 q 61 262 61 135 m 110 269 q 180 90 110 159 q 361 21 250 21 q 543 90 472 21 q 614 267 614 158 q 547 433 614 372 q 361 494 479 494 q 176 434 243 494 q 110 269 110 374 m 150 732 q 208 590 150 643 q 361 536 267 536 q 515 590 456 536 q 574 732 574 644 q 515 874 574 819 q 361 929 457 929 q 208 874 265 929 q 150 732 150 819 z "},"9":{"ha":724,"x_min":65,"x_max":660,"o":"m 65 647 q 144 880 65 793 q 345 968 224 968 q 660 492 660 968 q 328 -28 660 -28 q 153 33 219 -28 q 77 205 87 94 l 121 205 q 336 16 149 15 q 611 481 612 16 q 610 550 611 527 q 514 386 583 444 q 346 328 444 328 q 142 414 218 328 q 65 647 65 500 m 178 850 q 145 813 178 850 q 113 647 113 777 q 177 444 113 518 q 347 370 241 370 q 519 445 453 370 q 586 646 586 521 q 522 848 586 773 q 354 924 458 924 q 178 850 244 924 z "}," ":{"ha":361,"x_min":0,"x_max":0,"o":""},"!":{"ha":426,"x_min":186,"x_max":239,"o":"m 186 997 l 237 997 l 232 249 l 199 249 l 186 997 m 192 0 l 192 122 l 239 122 l 239 0 l 192 0 z "},"\"":{"ha":359,"x_min":69,"x_max":290,"o":"m 69 597 l 69 972 l 117 972 l 117 597 l 69 597 m 243 597 l 243 972 l 290 972 l 290 597 l 243 597 z "},"#":{"ha":1067,"x_min":97,"x_max":971,"o":"m 97 343 l 113 393 l 345 393 l 416 590 l 164 590 l 179 640 l 433 640 l 555 985 l 621 985 l 498 640 l 685 640 l 807 985 l 871 985 l 750 640 l 971 640 l 956 590 l 730 590 l 661 393 l 903 393 l 888 343 l 644 343 l 524 1 l 458 1 l 581 343 l 393 343 l 271 1 l 207 1 l 328 343 l 97 343 m 412 393 l 597 393 l 665 590 l 481 590 l 412 393 z "},"$":{"ha":724,"x_min":61,"x_max":663,"o":"m 61 283 l 61 288 l 106 288 q 335 26 110 54 l 335 471 q 147 567 208 504 q 86 733 86 631 q 154 910 86 843 q 335 977 221 977 l 335 1039 l 376 1039 l 376 977 q 570 912 503 975 q 639 736 637 850 l 599 736 q 380 933 583 933 l 376 933 l 376 509 q 663 248 663 458 q 376 -20 663 2 l 376 -115 l 335 -115 l 335 -20 q 132 71 203 -7 q 61 283 61 150 m 132 737 q 181 598 132 651 q 335 518 229 546 l 335 933 q 186 878 239 930 q 132 737 132 826 m 376 26 q 553 94 492 37 q 614 244 614 151 q 556 384 614 332 q 376 461 498 436 l 376 26 z "},"%":{"ha":1009,"x_min":56,"x_max":954,"o":"m 56 786 q 117 937 56 875 q 268 999 179 999 q 418 937 357 999 q 479 786 479 875 q 418 635 479 697 q 268 574 357 574 q 118 636 180 574 q 56 786 56 699 m 148 905 q 123 880 148 905 q 98 785 98 856 q 149 665 98 714 q 268 615 199 615 q 389 665 338 615 q 439 785 439 714 q 389 904 439 854 q 268 954 339 954 q 148 905 197 954 m 203 -22 l 757 999 l 806 999 l 250 -22 l 203 -22 m 529 189 q 591 340 529 278 q 742 401 653 401 q 892 340 831 401 q 954 189 954 278 q 892 39 954 100 q 742 -22 831 -22 q 592 40 654 -22 q 529 189 529 102 m 622 309 q 597 284 622 309 q 572 189 572 260 q 622 69 572 118 q 742 20 672 20 q 861 69 811 20 q 911 189 911 118 q 862 308 911 258 q 742 358 812 358 q 622 309 671 358 z "},"&":{"ha":846,"x_min":77,"x_max":850,"o":"m 77 268 q 325 579 77 468 q 235 709 264 656 q 205 814 205 762 q 260 947 205 896 q 404 999 315 999 q 543 947 489 999 q 596 811 596 895 q 395 564 596 656 l 679 210 q 733 450 733 315 l 777 450 q 710 174 774 283 l 850 0 l 793 0 l 684 134 q 383 -28 555 -28 q 161 56 245 -28 q 77 268 77 139 m 122 269 q 194 87 122 161 q 371 14 267 14 q 654 172 545 14 l 354 543 q 122 269 122 461 m 252 821 q 368 597 252 725 q 553 811 553 678 q 509 918 553 876 q 399 960 465 960 q 294 919 336 960 q 252 821 252 879 z "},"'":{"ha":186,"x_min":69,"x_max":117,"o":"m 69 597 l 69 972 l 117 972 l 117 597 l 69 597 z "},"(":{"ha":399,"x_min":135,"x_max":396,"o":"m 135 358 q 334 994 135 700 l 382 994 q 180 364 180 711 q 396 -306 180 14 l 349 -306 q 135 358 135 14 z "},")":{"ha":399,"x_min":8,"x_max":271,"o":"m 8 -306 q 225 364 224 16 q 24 994 225 711 l 72 994 q 271 358 271 700 q 56 -306 271 17 l 8 -306 z "},"*":{"ha":694,"x_min":142,"x_max":553,"o":"m 142 833 l 158 880 l 329 818 l 323 999 l 371 999 l 366 818 l 534 880 l 553 833 l 375 785 l 494 633 l 460 606 l 346 761 l 235 606 l 199 633 l 319 785 l 142 833 z "},"+":{"ha":1156,"x_min":172,"x_max":985,"o":"m 172 393 l 172 435 l 558 435 l 558 828 l 600 828 l 600 435 l 985 435 l 985 393 l 600 393 l 600 0 l 558 0 l 558 393 l 172 393 z "},",":{"ha":361,"x_min":93,"x_max":239,"o":"m 93 -146 l 192 119 l 239 119 l 140 -146 l 93 -146 z "},"-":{"ha":476,"x_min":53,"x_max":422,"o":"m 53 339 l 53 378 l 422 378 l 422 339 l 53 339 z "},".":{"ha":361,"x_min":158,"x_max":203,"o":"m 158 0 l 158 121 l 203 121 l 203 0 l 158 0 z "},"/":{"ha":406,"x_min":-18,"x_max":422,"o":"m -18 -117 l 375 1025 l 422 1025 l 29 -117 l -18 -117 z "},":":{"ha":394,"x_min":174,"x_max":220,"o":"m 174 0 l 174 121 l 220 121 l 220 0 l 174 0 m 174 555 l 174 676 l 220 676 l 220 555 l 174 555 z "},";":{"ha":394,"x_min":89,"x_max":235,"o":"m 89 -146 l 186 119 l 235 119 l 135 -146 l 89 -146 m 189 555 l 189 676 l 233 676 l 233 555 l 189 555 z "},"<":{"ha":1156,"x_min":179,"x_max":978,"o":"m 179 400 l 179 428 l 978 754 l 978 707 l 253 414 l 978 121 l 978 74 l 179 400 z "},"=":{"ha":1156,"x_min":172,"x_max":985,"o":"m 172 273 l 172 315 l 985 315 l 985 273 l 172 273 m 172 514 l 172 555 l 985 555 l 985 514 l 172 514 z "},">":{"ha":1156,"x_min":179,"x_max":978,"o":"m 179 74 l 179 121 l 903 414 l 179 707 l 179 754 l 978 428 l 978 400 l 179 74 z "},"?":{"ha":643,"x_min":43,"x_max":602,"o":"m 43 715 q 119 940 43 860 q 330 1019 196 1019 q 527 954 452 1019 q 602 779 602 888 q 555 631 602 697 q 508 574 533 600 q 455 522 484 547 q 418 488 427 496 q 343 375 353 422 q 328 245 332 321 l 283 245 q 298 386 285 323 q 319 438 304 412 q 348 479 335 464 q 387 522 361 494 q 424 557 397 532 q 476 608 452 582 q 521 663 500 633 q 554 774 554 711 q 494 923 554 871 q 322 975 433 975 q 150 908 211 975 q 89 720 89 842 l 89 715 l 43 715 m 279 0 l 279 119 l 334 119 l 334 0 l 279 0 z "},"@":{"ha":1389,"x_min":86,"x_max":1303,"o":"m 86 355 q 220 739 86 576 q 755 979 417 979 q 1128 867 981 979 q 1303 526 1303 732 q 1140 164 1303 293 q 935 89 1044 89 q 807 184 807 89 q 810 215 807 193 q 725 121 778 155 q 614 87 672 87 q 454 144 508 87 q 400 307 400 200 q 492 568 400 461 q 713 675 585 675 q 888 555 846 675 l 929 647 l 974 647 l 880 277 q 864 195 863 210 q 949 131 864 131 q 1131 215 1050 131 q 1216 355 1185 272 q 1247 528 1247 437 q 1111 824 1247 709 q 750 939 974 939 q 366 811 522 939 q 147 345 147 635 q 298 -11 147 123 q 700 -146 449 -146 q 1128 -16 932 -146 l 1143 -39 q 707 -184 947 -184 q 289 -62 448 -184 q 86 355 86 93 m 463 302 q 503 176 463 220 q 614 131 543 131 q 751 181 692 131 q 832 315 810 231 l 876 490 q 711 632 844 632 q 534 537 606 632 q 463 302 463 443 z "},"A":{"ha":797,"x_min":-8,"x_max":810,"o":"m -8 0 l 378 999 l 431 999 l 810 0 l 764 0 l 635 340 l 170 340 l 39 0 l -8 0 m 186 382 l 618 382 l 404 945 l 186 382 z "},"B":{"ha":858,"x_min":114,"x_max":804,"o":"m 114 0 l 114 999 l 387 999 q 646 956 570 999 q 753 751 753 892 q 582 524 753 586 q 804 267 804 481 q 774 138 804 196 q 690 49 743 81 q 418 0 612 0 l 114 0 m 161 41 l 408 41 q 633 66 572 41 q 724 145 692 90 q 755 275 755 200 q 672 449 755 396 q 410 501 589 501 l 161 501 l 161 41 m 161 538 l 393 538 q 628 590 551 538 q 705 754 705 642 q 631 913 705 869 q 390 957 557 957 l 161 957 l 161 538 z "},"C":{"ha":945,"x_min":71,"x_max":872,"o":"m 71 497 q 184 883 71 746 q 494 1021 297 1021 q 751 934 647 1021 q 869 708 856 847 l 822 708 q 713 907 801 836 q 486 979 625 979 q 219 851 319 979 q 119 497 119 724 q 217 146 119 272 q 479 20 314 20 q 726 103 632 20 q 827 330 819 187 l 872 330 q 759 74 863 169 q 486 -21 654 -21 q 180 115 290 -21 q 71 497 71 252 z "},"D":{"ha":957,"x_min":114,"x_max":885,"o":"m 114 0 l 114 999 l 343 999 q 664 950 567 999 q 885 498 885 840 q 828 214 885 329 q 664 49 771 98 q 343 0 561 0 l 114 0 m 161 41 l 354 41 q 652 92 557 41 q 836 498 836 189 q 704 869 836 753 q 565 939 646 922 q 354 956 485 956 l 161 956 l 161 41 z "},"E":{"ha":787,"x_min":114,"x_max":737,"o":"m 114 0 l 114 999 l 724 999 l 724 954 l 161 954 l 161 542 l 675 542 l 675 498 l 161 498 l 161 45 l 737 45 l 737 0 l 114 0 z "},"F":{"ha":726,"x_min":114,"x_max":697,"o":"m 114 0 l 114 999 l 697 999 l 697 954 l 161 954 l 161 542 l 635 542 l 635 498 l 161 498 l 161 0 l 114 0 z "},"G":{"ha":985,"x_min":72,"x_max":908,"o":"m 189 117 q 131 187 189 117 q 72 499 72 257 q 189 881 72 741 q 505 1021 306 1021 q 771 940 669 1021 q 895 715 873 860 l 847 715 q 734 910 823 842 q 505 979 646 979 q 225 850 329 979 q 121 499 121 721 q 225 148 121 277 q 505 20 329 20 q 767 120 671 20 q 864 393 864 220 l 864 436 l 534 436 l 534 478 l 908 478 l 908 0 l 868 0 l 868 196 q 505 -22 761 -22 q 189 117 307 -22 z "},"H":{"ha":952,"x_min":114,"x_max":839,"o":"m 114 0 l 114 999 l 161 999 l 161 554 l 793 554 l 793 999 l 839 999 l 839 0 l 793 0 l 793 513 l 161 513 l 161 0 l 114 0 z "},"I":{"ha":287,"x_min":121,"x_max":167,"o":"m 121 0 l 121 999 l 167 999 l 167 0 l 121 0 z "},"J":{"ha":656,"x_min":53,"x_max":553,"o":"m 53 253 q 54 311 53 289 l 97 311 q 96 289 97 302 q 96 271 96 275 q 301 18 96 18 q 463 87 418 18 q 507 304 507 155 l 507 999 l 553 999 l 553 290 q 492 53 553 130 q 297 -24 432 -24 q 116 47 179 -24 q 53 253 53 118 z "},"K":{"ha":808,"x_min":114,"x_max":835,"o":"m 114 0 l 114 999 l 161 999 l 161 436 l 715 999 l 775 999 l 380 599 l 835 0 l 779 0 l 350 567 l 161 375 l 161 0 l 114 0 z "},"L":{"ha":707,"x_min":115,"x_max":692,"o":"m 115 0 l 115 999 l 163 999 l 163 45 l 692 45 l 692 0 l 115 0 z "},"M":{"ha":1074,"x_min":114,"x_max":960,"o":"m 114 0 l 114 999 l 180 999 l 538 58 l 895 999 l 960 999 l 960 0 l 918 0 l 918 940 l 558 0 l 514 0 l 155 940 l 155 0 l 114 0 z "},"N":{"ha":947,"x_min":114,"x_max":833,"o":"m 114 0 l 114 999 l 161 999 l 787 79 l 787 999 l 833 999 l 833 0 l 787 0 l 160 918 l 160 0 l 114 0 z "},"O":{"ha":1029,"x_min":72,"x_max":957,"o":"m 190 116 q 131 185 190 116 q 72 499 72 254 q 190 882 72 743 q 514 1021 309 1021 q 838 882 720 1021 q 957 499 957 743 q 838 116 957 254 q 514 -22 720 -22 q 190 116 309 -22 m 225 851 q 173 788 225 851 q 121 498 121 724 q 225 146 121 273 q 514 20 330 20 q 803 146 697 20 q 908 498 908 273 q 803 851 908 724 q 514 979 697 979 q 225 851 330 979 z "},"P":{"ha":798,"x_min":114,"x_max":746,"o":"m 114 0 l 114 999 l 386 999 q 657 935 569 999 q 746 734 746 871 q 671 538 746 612 q 558 476 623 490 q 382 461 493 461 l 161 461 l 161 0 l 114 0 m 161 503 l 351 503 q 583 529 524 503 q 667 608 636 553 q 697 739 697 664 q 597 921 697 865 q 353 957 532 957 l 161 957 l 161 503 z "},"Q":{"ha":1029,"x_min":72,"x_max":957,"o":"m 72 498 q 190 882 72 743 q 514 1021 309 1021 q 838 883 718 1021 q 957 510 957 746 q 802 77 957 228 l 936 -33 l 907 -66 l 766 49 q 504 -22 671 -22 q 188 117 304 -22 q 72 498 72 257 m 225 851 q 173 788 225 851 q 121 498 121 724 q 225 147 121 273 q 514 21 329 21 q 730 78 649 21 l 614 174 l 642 205 l 768 106 q 908 498 909 233 q 803 851 908 724 q 514 979 697 979 q 225 851 330 979 z "},"R":{"ha":863,"x_min":114,"x_max":793,"o":"m 114 0 l 114 999 l 446 999 q 705 939 623 999 q 787 737 787 879 q 607 492 787 547 q 747 319 733 467 q 755 190 751 272 q 766 67 758 107 q 793 0 774 26 l 742 0 q 734 12 738 5 q 728 27 730 18 q 723 44 725 36 q 720 65 721 52 q 717 87 718 78 q 715 112 715 96 q 713 140 714 129 l 711 171 q 710 204 710 192 q 708 234 710 210 q 706 264 707 258 q 704 289 705 269 q 701 315 703 309 q 697 337 700 322 q 692 360 694 353 q 685 379 689 368 q 675 398 681 390 q 663 415 669 407 q 469 472 614 472 l 161 472 l 161 0 l 114 0 m 161 514 l 469 514 q 741 733 740 514 q 684 892 741 831 q 592 944 644 933 q 446 956 541 956 l 161 956 l 161 514 z "},"S":{"ha":795,"x_min":62,"x_max":734,"o":"m 62 304 l 109 304 q 197 96 117 172 q 404 20 277 20 q 610 85 532 20 q 688 253 688 151 q 675 333 688 299 q 643 390 663 367 q 582 433 623 412 q 502 466 541 453 q 395 498 463 479 q 293 528 319 519 q 224 555 267 536 q 158 595 182 574 q 87 760 87 659 q 168 948 87 876 q 387 1021 249 1021 q 615 942 529 1021 q 707 728 701 863 l 663 728 q 585 913 661 844 q 385 982 509 982 q 199 922 267 982 q 132 760 132 861 q 193 625 132 682 q 248 591 213 607 q 305 568 283 575 q 390 545 326 561 q 410 539 402 541 q 661 436 587 490 q 734 265 734 382 q 645 57 734 136 q 403 -22 555 -22 q 164 65 256 -22 q 62 304 73 152 z "},"T":{"ha":707,"x_min":17,"x_max":692,"o":"m 17 956 l 17 999 l 692 999 l 692 956 l 380 956 l 380 0 l 334 0 l 334 956 l 17 956 z "},"U":{"ha":932,"x_min":107,"x_max":827,"o":"m 107 349 l 107 999 l 153 999 l 153 371 q 233 109 153 199 q 467 20 314 20 q 700 110 619 20 q 781 371 781 200 l 781 999 l 827 999 l 827 349 q 731 76 827 175 q 467 -22 635 -22 q 202 75 297 -22 q 107 349 107 172 z "},"V":{"ha":729,"x_min":-4,"x_max":733,"o":"m -4 999 l 45 999 l 366 68 l 685 999 l 733 999 l 386 0 l 342 0 l -4 999 z "},"W":{"ha":1144,"x_min":11,"x_max":1133,"o":"m 11 999 l 58 999 l 302 83 l 545 999 l 602 999 l 843 83 l 1086 999 l 1133 999 l 867 0 l 819 0 l 572 933 l 325 0 l 278 0 l 11 999 z "},"X":{"ha":736,"x_min":1,"x_max":734,"o":"m 1 0 l 340 511 l 17 999 l 71 999 l 368 550 l 664 999 l 715 999 l 396 513 l 734 0 l 682 0 l 366 471 l 53 0 l 1 0 z "},"Y":{"ha":736,"x_min":1,"x_max":733,"o":"m 1 999 l 54 999 l 370 489 l 681 999 l 733 999 l 390 439 l 390 0 l 345 0 l 345 441 l 1 999 z "},"Z":{"ha":734,"x_min":12,"x_max":721,"o":"m 12 0 l 12 46 l 654 956 l 66 956 l 66 999 l 704 999 l 704 951 l 62 41 l 721 41 l 721 0 l 12 0 z "},"[":{"ha":419,"x_min":160,"x_max":395,"o":"m 160 -286 l 160 997 l 395 997 l 395 956 l 208 956 l 208 -244 l 395 -244 l 395 -286 l 160 -286 z "},"\\":{"ha":406,"x_min":-18,"x_max":422,"o":"m -18 1025 l 29 1025 l 422 -117 l 375 -117 l -18 1025 z "},"]":{"ha":419,"x_min":31,"x_max":265,"o":"m 31 -244 l 216 -244 l 216 956 l 31 956 l 31 997 l 265 997 l 265 -286 l 31 -286 l 31 -244 z "},"^":{"ha":1389,"x_min":289,"x_max":1099,"o":"m 289 612 l 660 987 l 726 987 l 1099 612 l 1025 612 l 694 940 l 363 612 l 289 612 z "},"_":{"ha":694,"x_min":0,"x_max":694,"o":"m 0 -286 l 694 -286 l 694 -328 l 0 -328 l 0 -286 z "},"`":{"ha":694,"x_min":210,"x_max":425,"o":"m 210 1034 l 283 1034 l 425 811 l 382 811 l 210 1034 z "},"a":{"ha":704,"x_min":47,"x_max":686,"o":"m 47 184 q 115 332 47 283 q 335 403 183 380 q 393 410 360 407 q 443 416 425 414 q 481 422 460 418 q 514 431 503 427 q 535 443 525 435 q 549 460 546 450 q 553 486 553 471 l 553 547 q 503 660 553 621 q 358 699 453 699 q 188 651 250 699 q 121 519 126 604 l 79 519 q 157 678 83 619 q 354 737 231 737 q 566 654 507 737 q 596 505 596 612 l 596 154 q 608 56 596 83 q 660 29 619 29 q 686 32 667 29 l 686 -4 q 666 -6 680 -4 q 647 -8 653 -8 q 575 23 597 -8 q 553 122 553 54 q 262 -18 463 -18 q 106 38 165 -18 q 47 184 47 94 m 93 192 q 140 69 93 113 q 275 25 187 25 q 481 96 399 25 q 539 180 526 134 q 553 306 553 227 l 553 412 q 400 374 536 389 q 367 370 379 371 q 157 313 221 351 q 93 192 93 274 z "},"b":{"ha":794,"x_min":96,"x_max":730,"o":"m 96 0 l 96 997 l 140 997 l 140 557 q 412 736 217 736 q 645 635 559 736 q 730 358 730 534 q 645 81 730 182 q 412 -20 559 -20 q 140 153 223 -20 l 140 0 l 96 0 m 214 607 q 177 562 214 607 q 140 358 140 517 q 214 110 140 200 q 413 20 288 20 q 612 110 538 20 q 686 358 686 200 q 612 607 686 517 q 413 697 538 697 q 214 607 288 697 z "},"c":{"ha":720,"x_min":61,"x_max":659,"o":"m 61 358 q 146 635 61 534 q 378 736 232 736 q 564 676 492 736 q 652 510 636 616 l 607 510 q 531 647 593 596 q 378 697 468 697 q 179 607 253 697 q 106 358 106 517 q 179 110 106 200 q 378 20 253 20 q 538 78 472 20 q 616 232 604 136 l 659 232 q 570 48 646 115 q 374 -20 493 -20 q 146 82 232 -20 q 61 358 61 183 z "},"d":{"ha":794,"x_min":64,"x_max":697,"o":"m 149 81 q 106 131 149 81 q 64 358 64 182 q 149 635 64 534 q 382 736 235 736 q 551 690 480 736 q 654 562 623 644 l 654 997 l 697 997 l 697 0 l 654 0 l 654 160 q 382 -20 584 -19 q 149 81 235 -20 m 183 607 q 146 562 183 607 q 109 358 109 517 q 183 110 109 200 q 382 20 257 20 q 581 110 507 20 q 654 358 654 200 q 581 607 654 517 q 382 697 507 697 q 183 607 257 697 z "},"e":{"ha":726,"x_min":60,"x_max":668,"o":"m 142 81 q 101 131 142 81 q 60 358 60 182 q 142 635 60 534 q 365 736 225 736 q 587 643 505 736 q 668 382 668 550 l 668 355 l 106 355 l 106 345 q 179 109 106 197 q 366 20 252 20 q 520 71 454 20 q 611 211 586 122 l 654 211 q 551 43 631 105 q 366 -20 472 -20 q 142 81 225 -20 m 107 396 l 621 396 q 552 616 621 535 q 374 697 484 697 q 188 617 260 697 q 107 396 115 536 z "},"f":{"ha":337,"x_min":41,"x_max":309,"o":"m 41 681 l 41 721 l 142 721 l 142 822 q 169 965 142 925 q 275 1004 196 1004 q 309 1003 296 1004 l 309 966 q 296 967 304 966 q 283 968 288 968 q 203 937 221 968 q 184 823 184 907 l 184 721 l 306 721 l 306 681 l 184 681 l 184 0 l 142 0 l 142 681 l 41 681 z "},"g":{"ha":794,"x_min":64,"x_max":697,"o":"m 149 80 q 106 131 149 80 q 64 358 64 182 q 149 635 64 534 q 382 736 235 736 q 553 689 480 736 q 654 559 625 642 l 654 721 l 697 721 l 697 39 q 689 -76 697 -31 q 652 -165 681 -122 q 363 -290 567 -290 q 168 -232 241 -290 q 93 -78 94 -174 l 135 -78 q 201 -205 139 -159 q 374 -252 264 -252 q 623 -129 554 -252 q 649 -45 644 -90 q 654 81 654 0 l 654 154 q 547 25 618 71 q 379 -21 476 -21 q 149 80 235 -21 m 183 607 q 146 562 183 607 q 109 358 109 517 q 183 110 109 200 q 382 20 257 20 q 581 110 507 20 q 654 358 654 200 q 581 607 654 517 q 382 697 507 697 q 183 607 257 697 z "},"h":{"ha":724,"x_min":96,"x_max":631,"o":"m 96 0 l 96 997 l 140 997 l 140 603 q 383 736 210 736 q 631 478 631 736 l 631 0 l 586 0 l 586 464 q 539 640 586 585 q 385 696 493 696 q 199 624 262 696 q 151 529 161 581 q 140 386 140 476 l 140 0 l 96 0 z "},"i":{"ha":243,"x_min":100,"x_max":143,"o":"m 100 0 l 100 721 l 143 721 l 143 0 l 100 0 m 100 880 l 100 997 l 143 997 l 143 880 l 100 880 z "},"j":{"ha":243,"x_min":-9,"x_max":144,"o":"m -9 -245 l 5 -245 q 87 -217 72 -245 q 102 -97 102 -189 l 102 721 l 144 721 l 144 -113 q 121 -251 144 -214 q 16 -288 97 -288 l -9 -288 l -9 -245 m 102 880 l 102 997 l 144 997 l 144 880 l 102 880 z "},"k":{"ha":635,"x_min":96,"x_max":652,"o":"m 96 0 l 96 997 l 140 997 l 140 310 l 555 721 l 610 721 l 347 458 l 652 0 l 602 0 l 317 428 l 140 257 l 140 0 l 96 0 z "},"l":{"ha":243,"x_min":100,"x_max":143,"o":"m 100 0 l 100 997 l 143 997 l 143 0 l 100 0 z "},"m":{"ha":1135,"x_min":96,"x_max":1042,"o":"m 96 0 l 96 721 l 140 721 l 140 603 q 366 736 211 736 q 579 589 538 736 q 814 736 653 736 q 1042 478 1042 736 l 1042 0 l 997 0 l 997 433 q 977 603 997 554 q 812 696 937 696 q 644 624 704 696 q 600 530 610 581 q 590 389 590 478 l 590 0 l 547 0 l 547 433 q 526 603 547 554 q 363 696 486 696 q 195 624 254 696 q 150 530 160 581 q 140 389 140 478 l 140 0 l 96 0 z "},"n":{"ha":724,"x_min":96,"x_max":631,"o":"m 96 0 l 96 721 l 140 721 l 140 603 q 383 736 210 736 q 631 478 631 736 l 631 0 l 586 0 l 586 464 q 539 640 586 585 q 385 696 493 696 q 199 624 262 696 q 151 529 161 581 q 140 386 140 476 l 140 0 l 96 0 z "},"o":{"ha":757,"x_min":61,"x_max":696,"o":"m 146 81 q 104 131 146 81 q 61 358 61 182 q 146 635 61 534 q 378 736 232 736 q 610 635 525 736 q 696 358 696 534 q 610 81 696 182 q 378 -20 525 -20 q 146 81 232 -20 m 179 607 q 143 562 179 607 q 106 358 106 517 q 179 110 106 200 q 378 20 253 20 q 577 110 503 20 q 652 358 652 200 q 577 607 652 517 q 378 697 503 697 q 179 607 253 697 z "},"p":{"ha":794,"x_min":96,"x_max":730,"o":"m 96 -286 l 96 721 l 140 721 l 140 555 q 412 736 210 736 q 645 635 559 736 q 730 358 730 534 q 645 81 730 182 q 412 -20 559 -20 q 140 155 210 -20 l 140 -286 l 96 -286 m 214 607 q 177 562 214 607 q 140 358 140 517 q 214 110 140 200 q 413 20 288 20 q 612 110 538 20 q 686 358 686 200 q 612 607 686 517 q 413 697 538 697 q 214 607 288 697 z "},"q":{"ha":794,"x_min":64,"x_max":697,"o":"m 149 81 q 106 131 149 81 q 64 358 64 182 q 149 635 64 534 q 382 736 235 736 q 654 555 585 736 l 654 721 l 697 721 l 697 -286 l 654 -286 l 654 155 q 382 -20 585 -20 q 149 81 235 -20 m 183 607 q 146 562 183 607 q 109 358 109 517 q 183 110 109 200 q 382 20 257 20 q 581 110 507 20 q 654 358 654 200 q 581 607 654 517 q 382 697 507 697 q 183 607 257 697 z "},"r":{"ha":365,"x_min":96,"x_max":355,"o":"m 96 0 l 96 721 l 140 721 l 140 591 q 355 736 195 736 l 355 693 q 187 608 233 688 q 140 350 140 528 l 140 0 l 96 0 z "},"s":{"ha":668,"x_min":68,"x_max":602,"o":"m 68 214 l 113 214 q 343 22 149 22 q 498 67 440 22 q 555 186 555 113 q 521 272 555 239 q 412 325 486 306 q 365 337 403 328 q 317 350 328 347 q 279 361 307 353 q 238 374 250 370 q 206 387 227 379 q 173 403 186 395 q 147 421 160 411 q 89 546 89 467 q 157 683 89 629 q 336 736 225 736 q 505 681 439 736 q 579 529 570 625 l 536 529 q 330 697 513 697 q 189 656 243 697 q 135 551 135 615 q 166 468 135 500 q 231 424 197 436 q 355 387 265 411 q 370 383 365 385 q 548 310 494 351 q 602 184 602 268 q 529 39 602 97 q 345 -20 457 -20 q 152 41 225 -20 q 68 214 79 102 z "},"t":{"ha":337,"x_min":43,"x_max":309,"o":"m 43 682 l 43 721 l 134 721 l 134 918 l 178 918 l 178 721 l 309 721 l 309 682 l 178 682 l 178 160 q 190 54 178 85 q 241 24 201 24 q 309 35 268 24 l 309 -5 q 235 -17 264 -16 q 156 14 179 -17 q 134 114 134 45 l 134 682 l 43 682 z "},"u":{"ha":724,"x_min":93,"x_max":627,"o":"m 93 239 l 93 721 l 136 721 l 136 253 q 183 77 136 132 q 339 21 231 21 q 525 93 461 21 q 573 188 562 136 q 583 330 583 240 l 583 721 l 627 721 l 627 0 l 583 0 l 583 113 q 340 -20 515 -20 q 93 239 93 -20 z "},"v":{"ha":616,"x_min":11,"x_max":607,"o":"m 11 721 l 57 721 l 304 52 l 561 721 l 607 721 l 329 0 l 279 0 l 11 721 z "},"w":{"ha":929,"x_min":18,"x_max":911,"o":"m 18 721 l 64 721 l 269 68 l 441 721 l 482 721 l 659 68 l 867 721 l 911 721 l 681 0 l 636 0 l 461 643 l 292 0 l 248 0 l 18 721 z "},"x":{"ha":569,"x_min":-7,"x_max":576,"o":"m -7 0 l 257 372 l 4 721 l 57 721 l 285 408 l 507 721 l 558 721 l 310 372 l 576 0 l 525 0 l 283 338 l 45 0 l -7 0 z "},"y":{"ha":606,"x_min":8,"x_max":596,"o":"m 8 721 l 52 721 l 300 52 l 549 721 l 596 721 l 282 -110 q 211 -248 246 -207 q 119 -289 176 -289 q 69 -281 87 -289 l 69 -239 q 121 -248 98 -247 q 215 -164 183 -248 l 277 -5 l 8 721 z "},"z":{"ha":606,"x_min":24,"x_max":583,"o":"m 24 0 l 24 52 l 521 677 l 52 677 l 52 721 l 568 721 l 568 669 l 71 43 l 583 43 l 583 0 l 24 0 z "},"{":{"ha":694,"x_min":122,"x_max":572,"o":"m 122 335 l 122 385 q 157 383 134 383 q 291 428 252 383 q 330 581 330 473 l 330 742 q 373 946 330 890 q 550 1002 416 1002 l 572 1002 l 572 954 l 547 954 q 417 915 449 954 q 386 768 386 876 l 386 604 q 360 439 386 493 q 256 359 335 385 q 360 280 335 334 q 386 115 386 227 l 386 -49 q 417 -196 386 -157 q 547 -235 449 -235 l 572 -235 l 572 -281 l 550 -281 q 373 -226 416 -281 q 330 -22 330 -171 l 330 139 q 291 292 330 248 q 153 336 252 336 q 138 336 149 336 q 122 335 127 335 z "},"|":{"ha":694,"x_min":322,"x_max":372,"o":"m 322 -328 l 322 1061 l 372 1061 l 372 -328 l 322 -328 z "},"}":{"ha":694,"x_min":123,"x_max":574,"o":"m 123 -233 l 150 -233 q 278 -195 248 -233 q 309 -49 309 -157 l 309 115 q 335 281 309 227 q 440 359 361 335 q 335 439 361 385 q 309 604 309 493 l 309 768 q 278 916 309 878 q 149 954 248 954 l 123 954 l 123 1002 l 146 1002 q 321 946 278 1002 q 364 742 364 890 l 364 581 q 403 428 364 473 q 539 383 441 383 q 574 385 562 383 l 574 335 q 558 336 568 335 q 543 336 547 336 q 404 292 444 336 q 364 139 364 248 l 364 -22 q 321 -226 364 -171 q 146 -281 278 -281 l 123 -281 l 123 -233 z "},"~":{"ha":1156,"x_min":121,"x_max":1038,"o":"m 121 332 l 121 382 q 383 484 260 484 q 514 457 439 484 q 579 433 534 450 q 649 409 625 416 q 708 394 672 401 q 775 386 745 386 q 1038 494 882 386 l 1038 446 q 775 345 895 344 q 579 390 703 345 q 547 402 574 391 q 512 415 519 412 q 482 425 504 418 q 447 434 460 432 q 417 439 435 436 q 383 441 400 441 q 121 332 279 441 z "}," ":{"ha":361,"x_min":0,"x_max":0,"o":""},"¡":{"ha":426,"x_min":186,"x_max":239,"o":"m 186 875 l 186 997 l 233 997 l 233 875 l 186 875 m 187 0 l 193 747 l 227 747 l 239 0 l 187 0 z "},"¢":{"ha":724,"x_min":56,"x_max":661,"o":"m 56 351 q 143 635 56 530 q 379 739 231 739 q 463 728 420 739 l 518 890 l 559 890 l 501 715 q 652 514 632 664 l 608 514 q 489 675 581 637 l 277 40 q 376 22 334 22 q 538 81 471 22 q 616 232 606 140 l 661 232 q 570 49 649 119 q 379 -21 492 -21 q 264 -4 325 -21 l 199 -195 l 157 -195 l 227 12 q 56 351 56 111 m 103 366 q 240 58 103 138 l 450 688 q 374 697 417 697 q 178 606 253 697 q 103 366 103 514 z "},"£":{"ha":724,"x_min":40,"x_max":682,"o":"m 40 454 l 40 494 l 175 494 q 78 733 78 659 q 156 905 78 836 q 359 974 235 974 q 569 897 494 974 q 644 676 643 819 l 602 676 q 535 866 596 801 q 364 932 473 932 q 194 876 260 932 q 129 734 129 819 q 231 494 129 663 l 429 494 l 429 454 l 249 454 q 273 330 274 389 q 146 69 273 194 q 233 85 203 85 q 359 54 279 85 q 473 24 439 24 q 653 113 579 24 l 682 78 q 475 -22 583 -22 q 343 8 429 -22 q 215 39 258 39 q 78 -4 154 39 l 46 37 q 225 325 225 161 q 197 454 225 382 l 40 454 z "},"¤":{"ha":724,"x_min":-1,"x_max":704,"o":"m -1 363 l 11 397 l 119 397 q 118 471 118 421 q 121 555 118 503 l 4 555 l 14 590 l 123 590 q 432 971 158 970 q 615 907 541 971 q 700 734 689 843 l 653 734 q 581 878 645 826 q 432 929 517 929 q 171 590 204 929 l 606 590 l 593 555 l 168 555 q 165 472 165 503 q 167 397 165 420 l 542 397 l 529 363 l 170 363 q 432 14 200 14 q 587 64 525 14 q 657 208 648 115 l 704 208 q 622 35 693 98 q 432 -28 550 -28 q 122 363 155 -28 l -1 363 z "},"¥":{"ha":736,"x_min":1,"x_max":733,"o":"m 1 411 l 1 446 l 328 446 l 258 553 l 1 553 l 1 587 l 233 587 l 1 945 l 53 945 l 370 458 l 682 945 l 733 945 l 503 587 l 733 587 l 733 553 l 478 553 l 408 446 l 733 446 l 733 411 l 390 411 l 390 0 l 345 0 l 345 411 l 1 411 z "},"¦":{"ha":694,"x_min":322,"x_max":372,"o":"m 322 -237 l 322 277 l 372 277 l 372 -237 l 322 -237 m 322 457 l 322 971 l 372 971 l 372 457 l 322 457 z "},"§":{"ha":694,"x_min":77,"x_max":616,"o":"m 77 492 q 208 686 77 621 q 140 827 140 742 q 198 965 140 910 q 349 1021 256 1021 q 508 961 452 1021 q 564 791 564 901 l 521 791 q 478 930 521 882 q 354 979 435 979 q 231 937 277 979 q 184 828 184 895 q 219 735 184 771 q 329 665 253 700 l 436 615 q 616 401 616 532 q 484 207 616 279 q 555 57 555 154 q 495 -82 555 -28 q 336 -136 435 -136 q 173 -82 231 -136 q 115 69 115 -28 q 117 98 115 89 l 157 98 l 157 81 q 203 -50 157 -4 q 332 -96 249 -96 q 466 -53 418 -96 q 514 62 514 -9 q 487 149 514 114 q 401 212 460 183 l 220 301 q 77 492 77 372 m 119 497 q 231 340 119 394 l 453 232 q 545 306 515 268 q 575 395 575 345 q 429 572 575 505 l 245 657 q 119 497 119 607 z "},"¨":{"ha":694,"x_min":208,"x_max":486,"o":"m 208 869 l 208 947 l 271 947 l 271 869 l 208 869 m 422 869 l 422 947 l 486 947 l 486 869 l 422 869 z "},"©":{"ha":1156,"x_min":85,"x_max":1072,"o":"m 85 488 q 231 838 85 689 q 578 981 371 981 q 929 836 785 981 q 1072 488 1072 693 q 930 140 1072 279 q 578 -7 781 -7 q 231 139 376 -7 q 85 488 85 285 m 127 488 q 261 171 127 304 q 578 36 396 36 q 899 172 760 36 q 1029 488 1029 298 q 899 806 1029 675 q 578 937 766 938 q 262 807 391 937 q 127 488 127 669 m 322 486 q 394 713 322 631 q 583 796 465 796 q 730 749 669 796 q 802 625 791 701 l 747 625 q 687 718 732 685 q 579 751 643 751 q 435 682 488 751 q 382 486 382 612 q 436 295 382 366 q 579 225 490 225 q 696 264 647 225 q 757 367 746 302 l 807 367 q 734 232 800 285 q 574 179 668 179 q 391 262 460 179 q 322 486 322 345 z "},"ª":{"ha":528,"x_min":36,"x_max":515,"o":"m 36 624 q 87 727 36 693 q 252 777 138 761 q 295 781 270 779 q 333 785 319 783 q 362 789 346 786 q 386 795 378 791 q 401 804 393 799 q 412 816 410 808 q 415 835 415 823 l 415 878 q 269 983 415 983 q 141 950 187 983 q 90 859 94 917 l 60 859 q 117 970 62 929 q 265 1011 172 1011 q 424 953 380 1011 q 447 848 448 922 l 447 603 q 456 534 447 553 q 494 515 465 515 q 515 517 507 515 l 515 492 q 486 489 490 489 q 432 510 449 489 q 415 581 415 532 q 197 482 347 482 q 81 521 125 482 q 36 624 36 560 m 69 629 q 105 543 69 574 q 207 513 142 513 q 361 561 298 513 q 404 621 393 589 q 415 708 415 653 l 415 783 q 286 754 401 766 q 275 753 279 753 q 117 713 165 741 q 69 629 69 686 z "},"«":{"ha":513,"x_min":60,"x_max":460,"o":"m 60 361 l 233 570 l 289 570 l 119 361 l 289 142 l 233 142 l 60 361 m 229 361 l 403 570 l 460 570 l 289 361 l 460 142 l 403 142 l 229 361 z "},"¬":{"ha":1156,"x_min":172,"x_max":985,"o":"m 172 538 l 172 579 l 985 579 l 985 239 l 943 239 l 943 538 l 172 538 z "},"­":{"ha":476,"x_min":53,"x_max":422,"o":"m 53 339 l 53 378 l 422 378 l 422 339 l 53 339 z "},"®":{"ha":1156,"x_min":85,"x_max":1072,"o":"m 85 488 q 231 838 85 689 q 578 981 371 981 q 929 838 783 981 q 1072 488 1072 694 q 930 142 1072 281 q 578 -7 779 -7 q 231 139 376 -7 q 85 488 85 285 m 127 488 q 262 171 127 306 q 578 36 397 36 q 900 172 761 36 q 1029 488 1029 298 q 897 806 1029 673 q 578 937 762 938 q 261 807 389 937 q 127 488 127 671 m 389 207 l 389 783 l 595 783 q 772 746 715 783 q 829 624 829 708 q 791 525 829 566 q 689 476 753 484 l 819 207 l 749 207 l 625 467 l 449 467 l 449 207 l 389 207 m 449 515 l 578 515 q 719 538 677 515 q 760 628 760 561 q 715 710 760 685 q 579 734 671 734 l 449 734 l 449 515 z "},"¯":{"ha":694,"x_min":196,"x_max":498,"o":"m 196 885 l 196 933 l 498 933 l 498 885 l 196 885 z "},"°":{"ha":456,"x_min":46,"x_max":411,"o":"m 99 669 q 72 696 99 669 q 46 799 46 722 q 100 928 46 875 q 229 982 154 982 q 357 928 303 982 q 411 799 411 875 q 358 670 411 724 q 228 616 304 616 q 99 669 151 616 m 124 904 q 103 883 124 904 q 81 799 81 861 q 124 693 81 736 q 229 650 168 650 q 334 693 292 650 q 376 799 376 736 q 333 904 376 860 q 229 947 290 947 q 124 904 168 947 z "},"±":{"ha":1156,"x_min":172,"x_max":985,"o":"m 172 49 l 172 90 l 985 90 l 985 49 l 172 49 m 172 497 l 172 539 l 558 539 l 558 781 l 600 781 l 600 539 l 985 539 l 985 497 l 600 497 l 600 254 l 558 254 l 558 497 l 172 497 z "},"²":{"ha":477,"x_min":46,"x_max":429,"o":"m 46 378 l 46 418 q 68 507 46 475 q 199 610 101 555 q 256 640 217 619 q 315 673 294 660 q 351 701 336 686 q 396 802 396 741 q 356 898 396 863 q 250 933 317 933 q 138 895 181 933 q 96 791 96 857 l 96 783 l 64 783 l 64 790 q 115 914 64 868 q 250 960 165 960 q 380 917 331 960 q 429 804 429 873 q 393 702 429 741 q 272 618 357 663 q 117 519 161 557 q 74 427 74 481 q 77 403 74 411 l 425 403 l 425 378 l 46 378 z "},"³":{"ha":477,"x_min":41,"x_max":436,"o":"m 41 546 l 41 550 l 74 550 l 74 547 q 115 430 74 472 q 232 389 157 389 q 356 428 309 389 q 404 532 404 468 q 211 664 404 664 l 193 664 l 193 688 l 214 688 q 340 722 296 688 q 385 817 385 755 q 347 902 385 871 q 239 933 309 933 q 129 896 170 933 q 89 793 89 859 l 89 789 l 61 789 l 61 791 q 109 915 61 871 q 245 958 157 958 q 369 919 322 958 q 416 817 416 880 q 388 730 416 766 q 311 677 359 693 q 404 628 371 667 q 436 534 436 590 q 380 410 436 458 q 233 363 323 363 q 92 411 143 363 q 41 546 41 458 z "},"´":{"ha":694,"x_min":269,"x_max":485,"o":"m 269 811 l 411 1034 l 485 1034 l 313 811 l 269 811 z "},"µ":{"ha":705,"x_min":-78,"x_max":650,"o":"m -78 -289 l 136 717 l 182 717 l 98 321 q 83 208 83 249 q 129 71 83 119 q 257 22 175 22 q 418 106 346 22 q 522 336 490 189 l 603 717 l 650 717 l 519 115 q 515 75 515 94 q 570 26 515 26 q 595 28 585 26 l 586 -14 q 551 -17 574 -16 q 469 60 469 -17 q 476 113 469 75 q 241 -25 391 -25 q 118 12 168 -25 q 54 114 69 49 l -31 -289 l -78 -289 z "},"¶":{"ha":694,"x_min":66,"x_max":628,"o":"m 66 766 q 139 938 66 872 q 335 1003 212 1003 l 628 1003 l 628 964 l 538 964 l 538 0 l 498 0 l 498 964 l 364 964 l 364 0 l 325 0 l 325 530 q 135 600 204 536 q 66 766 66 663 z "},"·":{"ha":361,"x_min":135,"x_max":227,"o":"m 148 440 q 142 446 148 440 q 135 471 135 453 q 148 503 135 489 q 181 517 161 517 q 213 504 200 517 q 227 471 227 490 q 213 439 227 452 q 181 427 200 427 q 148 440 161 427 z "},"¸":{"ha":694,"x_min":221,"x_max":509,"o":"m 221 -243 q 374 -264 303 -264 q 445 -245 420 -264 q 469 -193 469 -227 q 359 -115 469 -115 q 328 -117 338 -115 l 328 0 l 355 0 l 355 -82 l 372 -82 q 509 -186 509 -82 q 473 -271 509 -240 q 371 -301 437 -301 q 221 -281 314 -301 l 221 -243 z "},"¹":{"ha":477,"x_min":92,"x_max":282,"o":"m 92 814 l 92 839 q 252 943 235 842 l 282 943 l 282 378 l 252 378 l 252 872 q 100 814 195 814 l 92 814 z "},"º":{"ha":568,"x_min":46,"x_max":522,"o":"m 110 552 q 78 587 110 552 q 46 746 46 623 q 110 940 46 869 q 283 1010 174 1010 q 458 940 393 1010 q 522 746 522 869 q 458 552 522 623 q 283 481 393 481 q 110 552 174 481 m 135 920 q 107 888 135 920 q 79 746 79 857 q 135 572 79 635 q 283 509 191 509 q 433 572 378 509 q 489 746 489 635 q 433 919 489 856 q 283 982 378 982 q 135 920 191 982 z "},"»":{"ha":513,"x_min":54,"x_max":454,"o":"m 54 142 l 225 349 l 54 570 l 111 570 l 285 349 l 111 142 l 54 142 m 225 142 l 395 349 l 225 570 l 281 570 l 454 349 l 281 142 l 225 142 z "},"¼":{"ha":1143,"x_min":89,"x_max":1103,"o":"m 89 822 l 89 846 q 240 943 224 848 l 269 943 l 269 415 l 240 415 l 240 876 q 96 822 186 822 l 89 822 m 222 -22 l 868 971 l 921 971 l 275 -22 l 222 -22 m 729 140 l 729 165 l 1010 528 l 1036 528 l 1036 164 l 1103 164 l 1103 140 l 1036 140 l 1036 0 l 1008 0 l 1008 140 l 729 140 m 758 164 l 1008 164 l 1008 485 l 758 164 z "},"½":{"ha":1143,"x_min":89,"x_max":1097,"o":"m 89 822 l 89 846 q 240 943 224 848 l 269 943 l 269 415 l 240 415 l 240 876 q 96 822 186 822 l 89 822 m 222 -22 l 868 971 l 921 971 l 275 -22 l 222 -22 m 730 0 l 730 37 q 753 121 730 92 q 878 216 781 161 q 931 245 896 227 q 988 275 966 262 q 1023 301 1010 288 q 1065 395 1065 341 q 1027 486 1065 452 q 926 519 989 519 q 820 483 860 519 q 779 386 779 447 l 779 378 l 749 378 l 749 385 q 797 501 749 458 q 926 543 846 543 q 1050 503 1003 543 q 1097 397 1097 463 q 1063 302 1097 338 q 947 224 1028 267 q 801 132 843 168 q 758 46 758 96 q 760 24 758 31 l 1093 24 l 1093 0 l 730 0 z "},"¾":{"ha":1143,"x_min":40,"x_max":1103,"o":"m 40 572 l 40 575 l 69 575 l 69 574 q 110 465 69 503 q 221 427 150 427 q 340 463 295 427 q 386 559 386 500 q 203 682 386 682 l 184 682 l 184 704 l 204 704 q 326 736 283 704 q 368 825 368 768 q 331 905 368 876 q 228 935 294 935 q 123 899 161 935 q 85 803 85 864 l 85 799 l 58 799 l 58 802 q 104 916 58 876 q 235 957 150 957 q 354 921 309 957 q 399 825 399 885 q 372 743 399 778 q 297 696 345 708 q 385 649 353 685 q 416 562 416 614 q 363 446 416 490 q 222 401 310 401 q 88 447 136 401 q 40 572 40 492 m 222 -22 l 868 971 l 921 971 l 275 -22 l 222 -22 m 729 140 l 729 165 l 1010 528 l 1036 528 l 1036 164 l 1103 164 l 1103 140 l 1036 140 l 1036 0 l 1008 0 l 1008 140 l 729 140 m 758 164 l 1008 164 l 1008 485 l 758 164 z "},"¿":{"ha":643,"x_min":41,"x_max":600,"o":"m 41 221 q 87 370 41 303 q 135 427 110 400 q 188 478 160 453 q 225 511 216 503 q 300 625 290 576 q 315 754 311 680 l 359 754 q 345 614 358 676 q 324 562 339 587 q 295 521 309 536 q 256 478 282 505 q 218 443 246 467 q 166 392 191 418 q 121 338 142 367 q 89 225 89 292 q 149 76 89 128 q 321 24 210 24 q 493 91 432 24 q 554 281 554 158 l 554 285 l 600 285 q 524 60 600 140 q 313 -20 447 -20 q 116 46 191 -20 q 41 221 41 113 m 310 880 l 310 1000 l 364 1000 l 364 880 l 310 880 z "},"À":{"ha":797,"x_min":-8,"x_max":810,"o":"m -8 0 l 378 999 l 431 999 l 810 0 l 764 0 l 635 340 l 170 340 l 39 0 l -8 0 m 186 382 l 618 382 l 404 945 l 186 382 m 276 1318 l 350 1318 l 492 1096 l 448 1096 l 276 1318 z "},"Á":{"ha":797,"x_min":-8,"x_max":810,"o":"m -8 0 l 378 999 l 431 999 l 810 0 l 764 0 l 635 340 l 170 340 l 39 0 l -8 0 m 186 382 l 618 382 l 404 945 l 186 382 m 336 1096 l 477 1318 l 551 1318 l 379 1096 l 336 1096 z "},"Â":{"ha":797,"x_min":-8,"x_max":810,"o":"m -8 0 l 378 999 l 431 999 l 810 0 l 764 0 l 635 340 l 170 340 l 39 0 l -8 0 m 186 382 l 618 382 l 404 945 l 186 382 m 241 1096 l 380 1318 l 447 1318 l 585 1096 l 543 1096 l 414 1279 l 285 1096 l 241 1096 z "},"Ã":{"ha":797,"x_min":-8,"x_max":810,"o":"m -8 0 l 378 999 l 431 999 l 810 0 l 764 0 l 635 340 l 170 340 l 39 0 l -8 0 m 186 382 l 618 382 l 404 945 l 186 382 m 233 1141 q 337 1236 262 1236 q 375 1231 347 1236 l 452 1213 q 493 1206 480 1206 q 555 1253 534 1206 l 594 1253 q 490 1157 561 1157 q 444 1164 469 1157 l 368 1182 q 333 1186 351 1186 q 271 1141 297 1186 l 233 1141 z "},"Ä":{"ha":797,"x_min":-8,"x_max":810,"o":"m -8 0 l 378 999 l 431 999 l 810 0 l 764 0 l 635 340 l 170 340 l 39 0 l -8 0 m 186 382 l 618 382 l 404 945 l 186 382 m 275 1154 l 275 1232 l 337 1232 l 337 1154 l 275 1154 m 489 1154 l 489 1232 l 553 1232 l 553 1154 l 489 1154 z "},"Å":{"ha":797,"x_min":-8,"x_max":810,"o":"m -8 0 l 378 999 l 431 999 l 810 0 l 764 0 l 635 340 l 170 340 l 39 0 l -8 0 m 186 382 l 618 382 l 404 945 l 186 382 m 296 1077 q 274 1099 296 1077 q 252 1185 252 1121 q 296 1293 252 1249 q 404 1337 340 1337 q 512 1294 468 1337 q 555 1185 555 1250 q 512 1077 555 1121 q 404 1034 468 1034 q 296 1077 340 1034 m 323 1266 q 307 1250 323 1266 q 290 1186 290 1234 q 323 1106 290 1139 q 404 1074 357 1074 q 485 1106 453 1074 q 517 1186 517 1139 q 485 1266 517 1234 q 404 1299 453 1299 q 323 1266 357 1299 z "},"Æ":{"ha":1319,"x_min":-17,"x_max":1283,"o":"m -17 0 l 443 999 l 1268 999 l 1268 957 l 708 957 l 708 541 l 1221 541 l 1221 498 l 708 498 l 708 43 l 1283 43 l 1283 0 l 663 0 l 663 335 l 187 335 l 33 0 l -17 0 m 207 376 l 663 376 l 663 957 l 473 957 l 207 376 z "},"Ç":{"ha":945,"x_min":71,"x_max":872,"o":"m 71 497 q 184 883 71 746 q 494 1021 297 1021 q 751 934 647 1021 q 869 708 856 847 l 822 708 q 713 907 801 836 q 486 979 625 979 q 219 851 319 979 q 119 497 119 724 q 217 146 119 272 q 479 20 314 20 q 726 103 632 20 q 827 330 819 187 l 872 330 q 759 74 863 169 q 486 -21 654 -21 q 180 115 290 -21 q 71 497 71 252 m 363 -243 q 515 -264 445 -264 q 586 -245 562 -264 q 611 -193 611 -227 q 501 -115 611 -115 q 469 -117 480 -115 l 469 0 l 497 0 l 497 -82 l 514 -82 q 650 -186 650 -82 q 615 -271 650 -240 q 513 -301 579 -301 q 363 -281 456 -301 l 363 -243 z "},"È":{"ha":787,"x_min":114,"x_max":737,"o":"m 114 0 l 114 999 l 724 999 l 724 954 l 161 954 l 161 542 l 675 542 l 675 498 l 161 498 l 161 45 l 737 45 l 737 0 l 114 0 m 290 1318 l 364 1318 l 506 1096 l 463 1096 l 290 1318 z "},"É":{"ha":787,"x_min":114,"x_max":737,"o":"m 114 0 l 114 999 l 724 999 l 724 954 l 161 954 l 161 542 l 675 542 l 675 498 l 161 498 l 161 45 l 737 45 l 737 0 l 114 0 m 350 1096 l 492 1318 l 566 1318 l 393 1096 l 350 1096 z "},"Ê":{"ha":787,"x_min":114,"x_max":737,"o":"m 114 0 l 114 999 l 724 999 l 724 954 l 161 954 l 161 542 l 675 542 l 675 498 l 161 498 l 161 45 l 737 45 l 737 0 l 114 0 m 256 1096 l 395 1318 l 461 1318 l 599 1096 l 557 1096 l 428 1279 l 299 1096 l 256 1096 z "},"Ë":{"ha":787,"x_min":114,"x_max":737,"o":"m 114 0 l 114 999 l 724 999 l 724 954 l 161 954 l 161 542 l 675 542 l 675 498 l 161 498 l 161 45 l 737 45 l 737 0 l 114 0 m 289 1154 l 289 1232 l 351 1232 l 351 1154 l 289 1154 m 503 1154 l 503 1232 l 567 1232 l 567 1154 l 503 1154 z "},"Ì":{"ha":287,"x_min":7,"x_max":222,"o":"m 121 0 l 121 999 l 167 999 l 167 0 l 121 0 m 7 1318 l 81 1318 l 222 1096 l 179 1096 l 7 1318 z "},"Í":{"ha":287,"x_min":66,"x_max":282,"o":"m 121 0 l 121 999 l 167 999 l 167 0 l 121 0 m 66 1096 l 208 1318 l 282 1318 l 110 1096 l 66 1096 z "},"Î":{"ha":287,"x_min":-28,"x_max":315,"o":"m 121 0 l 121 999 l 167 999 l 167 0 l 121 0 m -28 1096 l 111 1318 l 178 1318 l 315 1096 l 273 1096 l 144 1279 l 16 1096 l -28 1096 z "},"Ï":{"ha":287,"x_min":5,"x_max":283,"o":"m 121 0 l 121 999 l 167 999 l 167 0 l 121 0 m 5 1154 l 5 1232 l 68 1232 l 68 1154 l 5 1154 m 220 1154 l 220 1232 l 283 1232 l 283 1154 l 220 1154 z "},"Ð":{"ha":957,"x_min":0,"x_max":885,"o":"m 0 517 l 0 554 l 114 554 l 114 999 l 343 999 q 664 950 567 999 q 885 498 885 840 q 828 214 885 329 q 664 49 771 98 q 343 0 561 0 l 114 0 l 114 517 l 0 517 m 161 41 l 354 41 q 652 92 557 41 q 836 498 836 189 q 704 869 836 753 q 565 939 646 922 q 354 956 485 956 l 161 956 l 161 554 l 498 554 l 498 517 l 161 517 l 161 41 z "},"Ñ":{"ha":947,"x_min":114,"x_max":833,"o":"m 114 0 l 114 999 l 161 999 l 787 79 l 787 999 l 833 999 l 833 0 l 787 0 l 160 918 l 160 0 l 114 0 m 293 1141 q 397 1236 322 1236 q 435 1231 406 1236 l 512 1213 q 553 1206 540 1206 q 615 1253 594 1206 l 654 1253 q 550 1157 621 1157 q 504 1164 529 1157 l 427 1182 q 393 1186 410 1186 q 330 1141 357 1186 l 293 1141 z "},"Ò":{"ha":1029,"x_min":72,"x_max":957,"o":"m 190 116 q 131 185 190 116 q 72 499 72 254 q 190 882 72 743 q 514 1021 309 1021 q 838 882 720 1021 q 957 499 957 743 q 838 116 957 254 q 514 -22 720 -22 q 190 116 309 -22 m 225 851 q 173 788 225 851 q 121 498 121 724 q 225 146 121 273 q 514 20 330 20 q 803 146 697 20 q 908 498 908 273 q 803 851 908 724 q 514 979 697 979 q 225 851 330 979 m 378 1318 l 452 1318 l 593 1096 l 550 1096 l 378 1318 z "},"Ó":{"ha":1029,"x_min":72,"x_max":957,"o":"m 190 116 q 131 185 190 116 q 72 499 72 254 q 190 882 72 743 q 514 1021 309 1021 q 838 882 720 1021 q 957 499 957 743 q 838 116 957 254 q 514 -22 720 -22 q 190 116 309 -22 m 225 851 q 173 788 225 851 q 121 498 121 724 q 225 146 121 273 q 514 20 330 20 q 803 146 697 20 q 908 498 908 273 q 803 851 908 724 q 514 979 697 979 q 225 851 330 979 m 437 1096 l 579 1318 l 653 1318 l 481 1096 l 437 1096 z "},"Ô":{"ha":1029,"x_min":72,"x_max":957,"o":"m 190 116 q 131 185 190 116 q 72 499 72 254 q 190 882 72 743 q 514 1021 309 1021 q 838 882 720 1021 q 957 499 957 743 q 838 116 957 254 q 514 -22 720 -22 q 190 116 309 -22 m 225 851 q 173 788 225 851 q 121 498 121 724 q 225 146 121 273 q 514 20 330 20 q 803 146 697 20 q 908 498 908 273 q 803 851 908 724 q 514 979 697 979 q 225 851 330 979 m 343 1096 l 482 1318 l 549 1318 l 686 1096 l 644 1096 l 515 1279 l 387 1096 l 343 1096 z "},"Õ":{"ha":1029,"x_min":72,"x_max":957,"o":"m 190 116 q 131 185 190 116 q 72 499 72 254 q 190 882 72 743 q 514 1021 309 1021 q 838 882 720 1021 q 957 499 957 743 q 838 116 957 254 q 514 -22 720 -22 q 190 116 309 -22 m 225 851 q 173 788 225 851 q 121 498 121 724 q 225 146 121 273 q 514 20 330 20 q 803 146 697 20 q 908 498 908 273 q 803 851 908 724 q 514 979 697 979 q 225 851 330 979 m 335 1141 q 439 1236 364 1236 q 477 1231 448 1236 l 554 1213 q 595 1206 582 1206 q 657 1253 636 1206 l 696 1253 q 592 1157 663 1157 q 546 1164 571 1157 l 469 1182 q 435 1186 452 1186 q 372 1141 399 1186 l 335 1141 z "},"Ö":{"ha":1029,"x_min":72,"x_max":957,"o":"m 190 116 q 131 185 190 116 q 72 499 72 254 q 190 882 72 743 q 514 1021 309 1021 q 838 882 720 1021 q 957 499 957 743 q 838 116 957 254 q 514 -22 720 -22 q 190 116 309 -22 m 225 851 q 173 788 225 851 q 121 498 121 724 q 225 146 121 273 q 514 20 330 20 q 803 146 697 20 q 908 498 908 273 q 803 851 908 724 q 514 979 697 979 q 225 851 330 979 m 376 1154 l 376 1232 l 439 1232 l 439 1154 l 376 1154 m 591 1154 l 591 1232 l 654 1232 l 654 1154 l 591 1154 z "},"×":{"ha":1156,"x_min":214,"x_max":942,"o":"m 214 81 l 547 414 l 214 747 l 244 778 l 578 444 l 911 778 l 942 747 l 608 414 l 942 81 l 911 50 l 578 383 l 244 50 l 214 81 z "},"Ø":{"ha":1029,"x_min":50,"x_max":978,"o":"m 50 -14 l 175 135 q 72 498 72 278 q 190 882 72 744 q 518 1019 307 1019 q 825 900 715 1019 l 946 1039 l 978 1008 l 854 864 q 957 498 958 715 q 838 115 957 253 q 509 -24 720 -24 q 201 103 328 -24 l 82 -40 l 50 -14 m 121 498 q 207 172 121 300 l 793 863 q 512 978 696 978 q 225 851 329 978 q 121 498 121 724 m 232 138 q 515 20 342 20 q 803 146 699 20 q 908 498 908 273 q 818 828 908 700 l 232 138 z "},"Ù":{"ha":932,"x_min":107,"x_max":827,"o":"m 107 349 l 107 999 l 153 999 l 153 371 q 233 109 153 199 q 467 20 314 20 q 700 110 619 20 q 781 371 781 200 l 781 999 l 827 999 l 827 349 q 731 76 827 175 q 467 -22 635 -22 q 202 75 297 -22 q 107 349 107 172 m 329 1318 l 403 1318 l 545 1096 l 501 1096 l 329 1318 z "},"Ú":{"ha":932,"x_min":107,"x_max":827,"o":"m 107 349 l 107 999 l 153 999 l 153 371 q 233 109 153 199 q 467 20 314 20 q 700 110 619 20 q 781 371 781 200 l 781 999 l 827 999 l 827 349 q 731 76 827 175 q 467 -22 635 -22 q 202 75 297 -22 q 107 349 107 172 m 389 1096 l 530 1318 l 604 1318 l 432 1096 l 389 1096 z "},"Û":{"ha":932,"x_min":107,"x_max":827,"o":"m 107 349 l 107 999 l 153 999 l 153 371 q 233 109 153 199 q 467 20 314 20 q 700 110 619 20 q 781 371 781 200 l 781 999 l 827 999 l 827 349 q 731 76 827 175 q 467 -22 635 -22 q 202 75 297 -22 q 107 349 107 172 m 294 1096 l 433 1318 l 500 1318 l 637 1096 l 595 1096 l 467 1279 l 338 1096 l 294 1096 z "},"Ü":{"ha":932,"x_min":107,"x_max":827,"o":"m 107 349 l 107 999 l 153 999 l 153 371 q 233 109 153 199 q 467 20 314 20 q 700 110 619 20 q 781 371 781 200 l 781 999 l 827 999 l 827 349 q 731 76 827 175 q 467 -22 635 -22 q 202 75 297 -22 q 107 349 107 172 m 328 1154 l 328 1232 l 390 1232 l 390 1154 l 328 1154 m 542 1154 l 542 1232 l 606 1232 l 606 1154 l 542 1154 z "},"Ý":{"ha":736,"x_min":1,"x_max":733,"o":"m 1 999 l 54 999 l 370 489 l 681 999 l 733 999 l 390 439 l 390 0 l 345 0 l 345 441 l 1 999 m 290 1096 l 432 1318 l 506 1318 l 334 1096 l 290 1096 z "},"Þ":{"ha":814,"x_min":114,"x_max":746,"o":"m 114 0 l 114 999 l 161 999 l 161 799 l 386 799 q 658 735 570 799 q 746 529 746 672 q 716 401 746 460 q 632 309 686 343 q 382 262 562 262 l 161 262 l 161 0 l 114 0 m 161 304 l 351 304 q 583 330 524 304 q 667 410 636 354 q 697 541 697 465 q 597 722 697 667 q 353 758 534 758 l 161 758 l 161 304 z "},"ß":{"ha":677,"x_min":96,"x_max":619,"o":"m 96 0 l 96 693 q 102 825 96 777 q 134 914 109 873 q 326 1011 195 1011 q 510 946 444 1011 q 575 765 575 882 q 439 558 575 608 q 573 467 526 536 q 619 289 619 399 q 549 63 619 142 q 345 -16 478 -16 q 298 -12 329 -16 l 298 32 q 342 29 329 29 q 513 95 454 29 q 571 288 571 161 q 322 539 571 539 l 298 539 l 298 578 q 312 577 302 578 q 328 576 322 576 q 526 762 526 576 q 474 917 526 862 q 328 972 422 972 q 165 884 212 972 q 142 693 142 839 l 142 0 l 96 0 z "},"à":{"ha":704,"x_min":47,"x_max":686,"o":"m 47 184 q 115 332 47 283 q 335 403 183 380 q 393 410 360 407 q 443 416 425 414 q 481 422 460 418 q 514 431 503 427 q 535 443 525 435 q 549 460 546 450 q 553 486 553 471 l 553 547 q 503 660 553 621 q 358 699 453 699 q 188 651 250 699 q 121 519 126 604 l 79 519 q 157 678 83 619 q 354 737 231 737 q 566 654 507 737 q 596 505 596 612 l 596 154 q 608 56 596 83 q 660 29 619 29 q 686 32 667 29 l 686 -4 q 666 -6 680 -4 q 647 -8 653 -8 q 575 23 597 -8 q 553 122 553 54 q 262 -18 463 -18 q 106 38 165 -18 q 47 184 47 94 m 93 192 q 140 69 93 113 q 275 25 187 25 q 481 96 399 25 q 539 180 526 134 q 553 306 553 227 l 553 412 q 400 374 536 389 q 367 370 379 371 q 157 313 221 351 q 93 192 93 274 m 201 1034 l 275 1034 l 417 811 l 374 811 l 201 1034 z "},"á":{"ha":704,"x_min":47,"x_max":686,"o":"m 47 184 q 115 332 47 283 q 335 403 183 380 q 393 410 360 407 q 443 416 425 414 q 481 422 460 418 q 514 431 503 427 q 535 443 525 435 q 549 460 546 450 q 553 486 553 471 l 553 547 q 503 660 553 621 q 358 699 453 699 q 188 651 250 699 q 121 519 126 604 l 79 519 q 157 678 83 619 q 354 737 231 737 q 566 654 507 737 q 596 505 596 612 l 596 154 q 608 56 596 83 q 660 29 619 29 q 686 32 667 29 l 686 -4 q 666 -6 680 -4 q 647 -8 653 -8 q 575 23 597 -8 q 553 122 553 54 q 262 -18 463 -18 q 106 38 165 -18 q 47 184 47 94 m 93 192 q 140 69 93 113 q 275 25 187 25 q 481 96 399 25 q 539 180 526 134 q 553 306 553 227 l 553 412 q 400 374 536 389 q 367 370 379 371 q 157 313 221 351 q 93 192 93 274 m 261 811 l 403 1034 l 477 1034 l 304 811 l 261 811 z "},"â":{"ha":704,"x_min":47,"x_max":686,"o":"m 47 184 q 115 332 47 283 q 335 403 183 380 q 393 410 360 407 q 443 416 425 414 q 481 422 460 418 q 514 431 503 427 q 535 443 525 435 q 549 460 546 450 q 553 486 553 471 l 553 547 q 503 660 553 621 q 358 699 453 699 q 188 651 250 699 q 121 519 126 604 l 79 519 q 157 678 83 619 q 354 737 231 737 q 566 654 507 737 q 596 505 596 612 l 596 154 q 608 56 596 83 q 660 29 619 29 q 686 32 667 29 l 686 -4 q 666 -6 680 -4 q 647 -8 653 -8 q 575 23 597 -8 q 553 122 553 54 q 262 -18 463 -18 q 106 38 165 -18 q 47 184 47 94 m 93 192 q 140 69 93 113 q 275 25 187 25 q 481 96 399 25 q 539 180 526 134 q 553 306 553 227 l 553 412 q 400 374 536 389 q 367 370 379 371 q 157 313 221 351 q 93 192 93 274 m 167 811 l 306 1034 l 372 1034 l 510 811 l 468 811 l 339 994 l 210 811 l 167 811 z "},"ã":{"ha":704,"x_min":47,"x_max":686,"o":"m 47 184 q 115 332 47 283 q 335 403 183 380 q 393 410 360 407 q 443 416 425 414 q 481 422 460 418 q 514 431 503 427 q 535 443 525 435 q 549 460 546 450 q 553 486 553 471 l 553 547 q 503 660 553 621 q 358 699 453 699 q 188 651 250 699 q 121 519 126 604 l 79 519 q 157 678 83 619 q 354 737 231 737 q 566 654 507 737 q 596 505 596 612 l 596 154 q 608 56 596 83 q 660 29 619 29 q 686 32 667 29 l 686 -4 q 666 -6 680 -4 q 647 -8 653 -8 q 575 23 597 -8 q 553 122 553 54 q 262 -18 463 -18 q 106 38 165 -18 q 47 184 47 94 m 93 192 q 140 69 93 113 q 275 25 187 25 q 481 96 399 25 q 539 180 526 134 q 553 306 553 227 l 553 412 q 400 374 536 389 q 367 370 379 371 q 157 313 221 351 q 93 192 93 274 m 159 856 q 262 951 188 951 q 300 946 272 951 l 378 928 q 418 921 406 921 q 481 968 460 921 l 519 968 q 416 872 486 872 q 370 879 395 872 l 293 897 q 258 901 276 901 q 196 856 222 901 l 159 856 z "},"ä":{"ha":704,"x_min":47,"x_max":686,"o":"m 47 184 q 115 332 47 283 q 335 403 183 380 q 393 410 360 407 q 443 416 425 414 q 481 422 460 418 q 514 431 503 427 q 535 443 525 435 q 549 460 546 450 q 553 486 553 471 l 553 547 q 503 660 553 621 q 358 699 453 699 q 188 651 250 699 q 121 519 126 604 l 79 519 q 157 678 83 619 q 354 737 231 737 q 566 654 507 737 q 596 505 596 612 l 596 154 q 608 56 596 83 q 660 29 619 29 q 686 32 667 29 l 686 -4 q 666 -6 680 -4 q 647 -8 653 -8 q 575 23 597 -8 q 553 122 553 54 q 262 -18 463 -18 q 106 38 165 -18 q 47 184 47 94 m 93 192 q 140 69 93 113 q 275 25 187 25 q 481 96 399 25 q 539 180 526 134 q 553 306 553 227 l 553 412 q 400 374 536 389 q 367 370 379 371 q 157 313 221 351 q 93 192 93 274 m 200 869 l 200 947 l 262 947 l 262 869 l 200 869 m 414 869 l 414 947 l 478 947 l 478 869 l 414 869 z "},"å":{"ha":704,"x_min":47,"x_max":686,"o":"m 47 184 q 115 332 47 283 q 335 403 183 380 q 393 410 360 407 q 443 416 425 414 q 481 422 460 418 q 514 431 503 427 q 535 443 525 435 q 549 460 546 450 q 553 486 553 471 l 553 547 q 503 660 553 621 q 358 699 453 699 q 188 651 250 699 q 121 519 126 604 l 79 519 q 157 678 83 619 q 354 737 231 737 q 566 654 507 737 q 596 505 596 612 l 596 154 q 608 56 596 83 q 660 29 619 29 q 686 32 667 29 l 686 -4 q 666 -6 680 -4 q 647 -8 653 -8 q 575 23 597 -8 q 553 122 553 54 q 262 -18 463 -18 q 106 38 165 -18 q 47 184 47 94 m 93 192 q 140 69 93 113 q 275 25 187 25 q 481 96 399 25 q 539 180 526 134 q 553 306 553 227 l 553 412 q 400 374 536 389 q 367 370 379 371 q 157 313 221 351 q 93 192 93 274 m 240 816 q 218 838 240 816 q 196 924 196 860 q 240 1031 196 987 q 347 1075 283 1075 q 455 1032 411 1075 q 498 924 498 989 q 455 816 498 860 q 347 772 411 772 q 240 816 283 772 m 267 1005 q 251 989 267 1005 q 235 925 235 972 q 267 844 235 878 q 347 811 300 811 q 427 844 395 811 q 460 925 460 876 q 427 1005 460 972 q 347 1038 395 1038 q 267 1005 300 1038 z "},"æ":{"ha":1212,"x_min":47,"x_max":1158,"o":"m 47 184 q 115 332 47 283 q 335 403 183 382 q 393 410 359 406 q 443 416 427 414 q 482 423 460 419 q 514 431 504 427 q 535 444 524 436 q 549 462 546 452 q 553 486 553 472 l 553 547 q 358 697 553 697 q 118 519 143 697 l 78 519 q 158 678 82 619 q 364 737 233 737 q 599 579 575 737 q 856 736 684 736 q 1077 643 996 736 q 1158 382 1158 550 l 1158 355 l 596 355 l 596 342 q 669 108 596 196 q 856 20 742 20 q 1008 70 943 20 q 1101 211 1072 119 l 1145 211 q 1040 41 1116 101 q 856 -20 964 -20 q 582 175 656 -20 q 467 35 553 87 q 264 -18 380 -18 q 107 38 167 -18 q 47 184 47 94 m 93 192 q 140 70 93 114 q 272 25 187 25 q 481 96 399 25 q 539 180 526 134 q 553 306 553 227 l 553 403 q 529 393 542 397 q 495 385 517 389 q 460 380 473 382 q 414 374 447 378 q 367 368 382 370 q 157 313 221 350 q 93 192 93 275 m 596 396 l 1111 396 l 1111 403 q 1042 617 1111 536 q 864 697 972 697 q 676 616 750 697 q 596 396 603 535 z "},"ç":{"ha":720,"x_min":61,"x_max":659,"o":"m 61 358 q 146 635 61 534 q 378 736 232 736 q 564 676 492 736 q 652 510 636 616 l 607 510 q 531 647 593 596 q 378 697 468 697 q 179 607 253 697 q 106 358 106 517 q 179 110 106 200 q 378 20 253 20 q 538 78 472 20 q 616 232 604 136 l 659 232 q 570 48 646 115 q 374 -20 493 -20 q 146 82 232 -20 q 61 358 61 183 m 248 -243 q 400 -264 330 -264 q 471 -245 446 -264 q 496 -193 496 -227 q 386 -115 496 -115 q 354 -117 365 -115 l 354 0 l 382 0 l 382 -82 l 399 -82 q 535 -186 535 -82 q 499 -271 535 -240 q 397 -301 464 -301 q 248 -281 340 -301 l 248 -243 z "},"è":{"ha":726,"x_min":60,"x_max":668,"o":"m 142 81 q 101 131 142 81 q 60 358 60 182 q 142 635 60 534 q 365 736 225 736 q 587 643 505 736 q 668 382 668 550 l 668 355 l 106 355 l 106 345 q 179 109 106 197 q 366 20 252 20 q 520 71 454 20 q 611 211 586 122 l 654 211 q 551 43 631 105 q 366 -20 472 -20 q 142 81 225 -20 m 107 396 l 621 396 q 552 616 621 535 q 374 697 484 697 q 188 617 260 697 q 107 396 115 536 m 232 1034 l 306 1034 l 448 811 l 404 811 l 232 1034 z "},"é":{"ha":726,"x_min":60,"x_max":668,"o":"m 142 81 q 101 131 142 81 q 60 358 60 182 q 142 635 60 534 q 365 736 225 736 q 587 643 505 736 q 668 382 668 550 l 668 355 l 106 355 l 106 345 q 179 109 106 197 q 366 20 252 20 q 520 71 454 20 q 611 211 586 122 l 654 211 q 551 43 631 105 q 366 -20 472 -20 q 142 81 225 -20 m 107 396 l 621 396 q 552 616 621 535 q 374 697 484 697 q 188 617 260 697 q 107 396 115 536 m 292 811 l 433 1034 l 507 1034 l 335 811 l 292 811 z "},"ê":{"ha":726,"x_min":60,"x_max":668,"o":"m 142 81 q 101 131 142 81 q 60 358 60 182 q 142 635 60 534 q 365 736 225 736 q 587 643 505 736 q 668 382 668 550 l 668 355 l 106 355 l 106 345 q 179 109 106 197 q 366 20 252 20 q 520 71 454 20 q 611 211 586 122 l 654 211 q 551 43 631 105 q 366 -20 472 -20 q 142 81 225 -20 m 107 396 l 621 396 q 552 616 621 535 q 374 697 484 697 q 188 617 260 697 q 107 396 115 536 m 197 811 l 336 1034 l 403 1034 l 541 811 l 498 811 l 370 994 l 241 811 l 197 811 z "},"ë":{"ha":726,"x_min":60,"x_max":668,"o":"m 142 81 q 101 131 142 81 q 60 358 60 182 q 142 635 60 534 q 365 736 225 736 q 587 643 505 736 q 668 382 668 550 l 668 355 l 106 355 l 106 345 q 179 109 106 197 q 366 20 252 20 q 520 71 454 20 q 611 211 586 122 l 654 211 q 551 43 631 105 q 366 -20 472 -20 q 142 81 225 -20 m 107 396 l 621 396 q 552 616 621 535 q 374 697 484 697 q 188 617 260 697 q 107 396 115 536 m 231 869 l 231 947 l 293 947 l 293 869 l 231 869 m 445 869 l 445 947 l 509 947 l 509 869 l 445 869 z "},"ì":{"ha":243,"x_min":-16,"x_max":200,"o":"m 100 0 l 100 721 l 143 721 l 143 0 l 100 0 m -16 1034 l 58 1034 l 200 811 l 157 811 l -16 1034 z "},"í":{"ha":243,"x_min":44,"x_max":260,"o":"m 100 0 l 100 721 l 143 721 l 143 0 l 100 0 m 44 811 l 186 1034 l 260 1034 l 87 811 l 44 811 z "},"î":{"ha":243,"x_min":-50,"x_max":293,"o":"m 100 0 l 100 721 l 143 721 l 143 0 l 100 0 m -50 811 l 89 1034 l 155 1034 l 293 811 l 251 811 l 122 994 l -7 811 l -50 811 z "},"ï":{"ha":243,"x_min":-17,"x_max":261,"o":"m 100 0 l 100 721 l 143 721 l 143 0 l 100 0 m -17 869 l -17 947 l 45 947 l 45 869 l -17 869 m 197 869 l 197 947 l 261 947 l 261 869 l 197 869 z "},"ð":{"ha":757,"x_min":60,"x_max":696,"o":"m 142 76 q 101 124 142 76 q 60 346 60 171 q 144 617 60 521 q 378 714 228 714 q 589 629 498 714 q 392 846 509 768 l 201 765 l 187 802 l 351 871 q 147 971 265 926 l 164 1006 q 393 890 277 963 l 566 965 l 582 929 l 433 864 q 696 351 696 663 q 613 77 696 172 q 378 -18 530 -18 q 142 76 225 -18 m 179 589 q 143 545 179 589 q 106 347 106 501 q 179 106 106 193 q 378 18 253 18 q 577 106 503 18 q 652 347 652 193 q 577 589 652 501 q 378 676 503 676 q 179 589 253 676 z "},"ñ":{"ha":724,"x_min":96,"x_max":631,"o":"m 96 0 l 96 721 l 140 721 l 140 603 q 383 736 210 736 q 631 478 631 736 l 631 0 l 586 0 l 586 464 q 539 640 586 585 q 385 696 493 696 q 199 624 262 696 q 151 529 161 581 q 140 386 140 476 l 140 0 l 96 0 m 182 856 q 286 951 212 951 q 324 946 296 951 l 401 928 q 442 921 429 921 q 505 968 484 921 l 543 968 q 439 872 510 872 q 393 879 418 872 l 317 897 q 282 901 300 901 q 220 856 246 901 l 182 856 z "},"ò":{"ha":757,"x_min":61,"x_max":696,"o":"m 146 81 q 104 131 146 81 q 61 358 61 182 q 146 635 61 534 q 378 736 232 736 q 610 635 525 736 q 696 358 696 534 q 610 81 696 182 q 378 -20 525 -20 q 146 81 232 -20 m 179 607 q 143 562 179 607 q 106 358 106 517 q 179 110 106 200 q 378 20 253 20 q 577 110 503 20 q 652 358 652 200 q 577 607 652 517 q 378 697 503 697 q 179 607 253 697 m 241 1034 l 315 1034 l 457 811 l 414 811 l 241 1034 z "},"ó":{"ha":757,"x_min":61,"x_max":696,"o":"m 146 81 q 104 131 146 81 q 61 358 61 182 q 146 635 61 534 q 378 736 232 736 q 610 635 525 736 q 696 358 696 534 q 610 81 696 182 q 378 -20 525 -20 q 146 81 232 -20 m 179 607 q 143 562 179 607 q 106 358 106 517 q 179 110 106 200 q 378 20 253 20 q 577 110 503 20 q 652 358 652 200 q 577 607 652 517 q 378 697 503 697 q 179 607 253 697 m 301 811 l 443 1034 l 517 1034 l 345 811 l 301 811 z "},"ô":{"ha":757,"x_min":61,"x_max":696,"o":"m 146 81 q 104 131 146 81 q 61 358 61 182 q 146 635 61 534 q 378 736 232 736 q 610 635 525 736 q 696 358 696 534 q 610 81 696 182 q 378 -20 525 -20 q 146 81 232 -20 m 179 607 q 143 562 179 607 q 106 358 106 517 q 179 110 106 200 q 378 20 253 20 q 577 110 503 20 q 652 358 652 200 q 577 607 652 517 q 378 697 503 697 q 179 607 253 697 m 207 811 l 346 1034 l 412 1034 l 550 811 l 508 811 l 379 994 l 250 811 l 207 811 z "},"õ":{"ha":757,"x_min":61,"x_max":696,"o":"m 146 81 q 104 131 146 81 q 61 358 61 182 q 146 635 61 534 q 378 736 232 736 q 610 635 525 736 q 696 358 696 534 q 610 81 696 182 q 378 -20 525 -20 q 146 81 232 -20 m 179 607 q 143 562 179 607 q 106 358 106 517 q 179 110 106 200 q 378 20 253 20 q 577 110 503 20 q 652 358 652 200 q 577 607 652 517 q 378 697 503 697 q 179 607 253 697 m 199 856 q 302 951 228 951 q 340 946 312 951 l 418 928 q 458 921 446 921 q 521 968 500 921 l 559 968 q 456 872 526 872 q 410 879 435 872 l 333 897 q 298 901 316 901 q 236 856 262 901 l 199 856 z "},"ö":{"ha":757,"x_min":61,"x_max":696,"o":"m 146 81 q 104 131 146 81 q 61 358 61 182 q 146 635 61 534 q 378 736 232 736 q 610 635 525 736 q 696 358 696 534 q 610 81 696 182 q 378 -20 525 -20 q 146 81 232 -20 m 179 607 q 143 562 179 607 q 106 358 106 517 q 179 110 106 200 q 378 20 253 20 q 577 110 503 20 q 652 358 652 200 q 577 607 652 517 q 378 697 503 697 q 179 607 253 697 m 240 869 l 240 947 l 302 947 l 302 869 l 240 869 m 454 869 l 454 947 l 518 947 l 518 869 l 454 869 z "},"÷":{"ha":1156,"x_min":172,"x_max":985,"o":"m 172 393 l 172 435 l 985 435 l 985 393 l 172 393 m 517 183 q 535 228 517 210 q 579 245 554 245 q 623 228 606 245 q 640 184 640 211 q 622 141 640 159 q 579 122 604 122 q 535 140 553 122 q 517 183 517 158 m 517 643 q 535 687 517 668 q 579 705 554 705 q 622 687 604 705 q 640 643 640 669 q 623 599 640 616 q 579 582 606 582 q 535 599 553 582 q 517 643 517 616 z "},"ø":{"ha":757,"x_min":41,"x_max":715,"o":"m 41 -3 l 131 103 q 61 357 62 205 q 146 635 61 534 q 379 736 232 736 q 603 644 515 736 l 686 742 l 715 714 l 628 612 q 697 367 697 513 q 612 82 697 184 q 379 -20 528 -20 q 155 71 241 -20 l 69 -29 l 41 -3 m 106 355 q 161 136 106 219 l 574 611 q 374 697 500 697 q 179 606 253 697 q 106 355 106 515 m 186 104 q 379 20 261 20 q 578 110 504 20 q 652 358 652 200 q 599 578 652 504 l 186 104 z "},"ù":{"ha":724,"x_min":93,"x_max":627,"o":"m 93 239 l 93 721 l 136 721 l 136 253 q 183 77 136 132 q 339 21 231 21 q 525 93 461 21 q 573 188 562 136 q 583 330 583 240 l 583 721 l 627 721 l 627 0 l 583 0 l 583 113 q 340 -20 515 -20 q 93 239 93 -20 m 225 1034 l 299 1034 l 441 811 l 397 811 l 225 1034 z "},"ú":{"ha":724,"x_min":93,"x_max":627,"o":"m 93 239 l 93 721 l 136 721 l 136 253 q 183 77 136 132 q 339 21 231 21 q 525 93 461 21 q 573 188 562 136 q 583 330 583 240 l 583 721 l 627 721 l 627 0 l 583 0 l 583 113 q 340 -20 515 -20 q 93 239 93 -20 m 285 811 l 427 1034 l 500 1034 l 328 811 l 285 811 z "},"û":{"ha":724,"x_min":93,"x_max":627,"o":"m 93 239 l 93 721 l 136 721 l 136 253 q 183 77 136 132 q 339 21 231 21 q 525 93 461 21 q 573 188 562 136 q 583 330 583 240 l 583 721 l 627 721 l 627 0 l 583 0 l 583 113 q 340 -20 515 -20 q 93 239 93 -20 m 191 811 l 330 1034 l 396 1034 l 534 811 l 492 811 l 363 994 l 234 811 l 191 811 z "},"ü":{"ha":724,"x_min":93,"x_max":627,"o":"m 93 239 l 93 721 l 136 721 l 136 253 q 183 77 136 132 q 339 21 231 21 q 525 93 461 21 q 573 188 562 136 q 583 330 583 240 l 583 721 l 627 721 l 627 0 l 583 0 l 583 113 q 340 -20 515 -20 q 93 239 93 -20 m 224 869 l 224 947 l 286 947 l 286 869 l 224 869 m 438 869 l 438 947 l 502 947 l 502 869 l 438 869 z "},"ý":{"ha":606,"x_min":8,"x_max":596,"o":"m 8 721 l 52 721 l 300 52 l 549 721 l 596 721 l 282 -110 q 211 -248 246 -207 q 119 -289 176 -289 q 69 -281 87 -289 l 69 -239 q 121 -248 98 -247 q 215 -164 183 -248 l 277 -5 l 8 721 m 227 811 l 368 1034 l 442 1034 l 270 811 l 227 811 z "},"þ":{"ha":794,"x_min":96,"x_max":730,"o":"m 96 -286 l 96 997 l 140 997 l 140 555 q 412 736 210 736 q 644 635 558 736 q 730 358 730 534 q 645 81 730 182 q 412 -20 559 -20 q 244 26 314 -20 q 140 155 174 72 l 140 -286 l 96 -286 m 214 607 q 177 562 214 607 q 140 358 140 517 q 214 110 140 200 q 413 20 288 20 q 612 110 538 20 q 686 358 686 200 q 612 607 686 517 q 413 697 538 697 q 214 607 288 697 z "},"ÿ":{"ha":606,"x_min":8,"x_max":596,"o":"m 8 721 l 52 721 l 300 52 l 549 721 l 596 721 l 282 -110 q 211 -248 246 -207 q 119 -289 176 -289 q 69 -281 87 -289 l 69 -239 q 121 -248 98 -247 q 215 -164 183 -248 l 277 -5 l 8 721 m 165 869 l 165 947 l 228 947 l 228 869 l 165 869 m 380 869 l 380 947 l 444 947 l 444 869 l 380 869 z "},"ı":{"ha":243,"x_min":100,"x_max":143,"o":"m 100 0 l 100 721 l 143 721 l 143 0 l 100 0 z "},"Œ":{"ha":1451,"x_min":72,"x_max":1418,"o":"m 190 116 q 131 185 190 116 q 72 499 72 254 q 190 883 72 743 q 517 1022 309 1022 q 794 926 690 1022 l 794 999 l 1404 999 l 1404 956 l 842 956 l 842 542 l 1356 542 l 1356 498 l 842 498 l 842 43 l 1418 43 l 1418 0 l 794 0 l 794 79 q 514 -22 684 -22 q 190 116 307 -22 m 226 851 q 173 788 226 851 q 121 498 121 724 q 225 146 121 273 q 514 20 330 20 q 794 139 696 20 l 794 861 q 513 979 707 979 q 226 851 331 979 z "},"œ":{"ha":1316,"x_min":61,"x_max":1263,"o":"m 146 81 q 104 131 146 81 q 61 358 61 182 q 146 635 61 534 q 378 736 232 736 q 567 677 490 736 q 673 509 643 618 q 778 677 704 618 q 960 736 852 736 q 1180 642 1097 736 q 1263 385 1263 547 q 1262 371 1263 380 q 1261 355 1261 361 l 696 355 q 769 110 696 200 q 960 20 842 20 q 1112 70 1047 20 q 1206 211 1177 119 l 1247 211 q 1145 42 1222 104 q 960 -20 1068 -20 q 778 39 851 -20 q 675 208 705 97 q 378 -20 604 -20 q 146 81 232 -20 m 179 607 q 143 562 179 607 q 106 358 106 517 q 179 110 106 200 q 378 20 253 20 q 577 110 503 20 q 652 358 652 200 q 577 607 652 517 q 378 697 503 697 q 179 607 253 697 m 697 396 l 1211 396 l 1211 412 q 1142 619 1211 541 q 965 697 1074 697 q 775 615 850 697 q 697 396 701 534 z "},"Ÿ":{"ha":736,"x_min":1,"x_max":733,"o":"m 1 999 l 54 999 l 370 489 l 681 999 l 733 999 l 390 439 l 390 0 l 345 0 l 345 441 l 1 999 m 229 1154 l 229 1232 l 292 1232 l 292 1154 l 229 1154 m 444 1154 l 444 1232 l 507 1232 l 507 1154 l 444 1154 z "},"ˆ":{"ha":694,"x_min":175,"x_max":518,"o":"m 175 811 l 314 1034 l 380 1034 l 518 811 l 476 811 l 347 994 l 218 811 l 175 811 z "},"˜":{"ha":694,"x_min":167,"x_max":528,"o":"m 167 856 q 271 951 196 951 q 309 946 280 951 l 386 928 q 427 921 414 921 q 489 968 468 921 l 528 968 q 424 872 494 872 q 378 879 403 872 l 301 897 q 267 901 284 901 q 204 856 231 901 l 167 856 z "},"μ":{"ha":705,"x_min":-78,"x_max":650,"o":"m -78 -289 l 136 717 l 182 717 l 98 321 q 83 208 83 249 q 129 71 83 119 q 257 22 175 22 q 418 106 346 22 q 522 336 490 189 l 603 717 l 650 717 l 519 115 q 515 75 515 94 q 570 26 515 26 q 595 28 585 26 l 586 -14 q 551 -17 574 -16 q 469 60 469 -17 q 476 113 469 75 q 241 -25 391 -25 q 118 12 168 -25 q 54 114 69 49 l -31 -289 l -78 -289 z "}," ":{"ha":668,"x_min":0,"x_max":0,"o":""}," ":{"ha":1337,"x_min":0,"x_max":0,"o":""}," ":{"ha":668,"x_min":0,"x_max":0,"o":""}," ":{"ha":1337,"x_min":0,"x_max":0,"o":""}," ":{"ha":446,"x_min":0,"x_max":0,"o":""}," ":{"ha":333,"x_min":0,"x_max":0,"o":""}," ":{"ha":222,"x_min":0,"x_max":0,"o":""}," ":{"ha":222,"x_min":0,"x_max":0,"o":""}," ":{"ha":166,"x_min":0,"x_max":0,"o":""}," ":{"ha":267,"x_min":0,"x_max":0,"o":""}," ":{"ha":73,"x_min":0,"x_max":0,"o":""},"‐":{"ha":476,"x_min":53,"x_max":422,"o":"m 53 339 l 53 378 l 422 378 l 422 339 l 53 339 z "},"‑":{"ha":476,"x_min":53,"x_max":422,"o":"m 53 339 l 53 378 l 422 378 l 422 339 l 53 339 z "},"‒":{"ha":476,"x_min":53,"x_max":422,"o":"m 53 339 l 53 378 l 422 378 l 422 339 l 53 339 z "},"–":{"ha":694,"x_min":0,"x_max":694,"o":"m 0 345 l 0 374 l 694 374 l 694 345 l 0 345 z "},"—":{"ha":1389,"x_min":0,"x_max":1389,"o":"m 0 345 l 0 374 l 1389 374 l 1389 345 l 0 345 z "},"‘":{"ha":329,"x_min":92,"x_max":237,"o":"m 92 999 l 139 999 l 237 728 l 189 728 l 92 999 z "},"’":{"ha":329,"x_min":92,"x_max":236,"o":"m 92 728 l 189 999 l 236 999 l 139 728 l 92 728 z "},"‚":{"ha":329,"x_min":65,"x_max":211,"o":"m 65 -147 l 163 123 l 211 123 l 114 -147 l 65 -147 z "},"“":{"ha":529,"x_min":92,"x_max":436,"o":"m 92 999 l 139 999 l 237 728 l 189 728 l 92 999 m 290 999 l 339 999 l 436 728 l 387 728 l 290 999 z "},"”":{"ha":529,"x_min":92,"x_max":436,"o":"m 92 728 l 189 999 l 236 999 l 139 728 l 92 728 m 290 728 l 389 999 l 436 999 l 339 728 l 290 728 z "},"„":{"ha":529,"x_min":65,"x_max":410,"o":"m 65 -147 l 163 123 l 211 123 l 114 -147 l 65 -147 m 265 -147 l 363 123 l 410 123 l 313 -147 l 265 -147 z "},"•":{"ha":819,"x_min":208,"x_max":610,"o":"m 267 374 q 237 404 267 374 q 208 517 208 433 q 267 659 208 600 q 410 717 326 717 q 551 659 492 717 q 610 517 610 600 q 551 375 610 435 q 408 315 492 315 q 267 374 325 315 z "},"…":{"ha":1389,"x_min":210,"x_max":1181,"o":"m 210 0 l 210 121 l 254 121 l 254 0 l 210 0 m 672 0 l 672 121 l 717 121 l 717 0 l 672 0 m 1136 0 l 1136 121 l 1181 121 l 1181 0 l 1136 0 z "}," ":{"ha":267,"x_min":0,"x_max":0,"o":""},"‹":{"ha":344,"x_min":60,"x_max":289,"o":"m 60 361 l 233 570 l 289 570 l 119 361 l 289 142 l 233 142 l 60 361 z "},"›":{"ha":344,"x_min":54,"x_max":285,"o":"m 54 142 l 225 349 l 54 570 l 111 570 l 285 349 l 111 142 l 54 142 z "}," ":{"ha":333,"x_min":0,"x_max":0,"o":""},"™":{"ha":1156,"x_min":193,"x_max":916,"o":"m 193 957 l 193 985 l 471 985 l 471 957 l 353 957 l 353 628 l 314 628 l 314 957 l 193 957 m 561 628 l 561 985 l 621 985 l 743 676 l 857 985 l 916 985 l 916 628 l 884 628 l 884 960 l 758 628 l 728 628 l 595 960 l 595 628 l 561 628 z "},"":{"ha":722,"x_min":0,"x_max":722,"o":"m 0 722 l 722 722 l 722 0 l 0 0 l 0 722 z "},"ﬁ":{"ha":582,"x_min":41,"x_max":482,"o":"m 41 681 l 41 721 l 142 721 l 142 822 q 169 965 142 925 q 275 1004 196 1004 q 309 1003 296 1004 l 309 966 q 296 967 304 966 q 283 968 288 968 q 203 937 221 968 q 184 823 184 907 l 184 721 l 306 721 l 306 681 l 184 681 l 184 0 l 142 0 l 142 681 l 41 681 m 439 0 l 439 721 l 482 721 l 482 0 l 439 0 m 439 880 l 439 997 l 482 997 l 482 880 l 439 880 z "},"ﬂ":{"ha":582,"x_min":41,"x_max":482,"o":"m 41 681 l 41 721 l 142 721 l 142 822 q 169 965 142 925 q 275 1004 196 1004 q 309 1003 296 1004 l 309 966 q 296 967 304 966 q 283 968 288 968 q 203 937 221 968 q 184 823 184 907 l 184 721 l 306 721 l 306 681 l 184 681 l 184 0 l 142 0 l 142 681 l 41 681 m 439 0 l 439 997 l 482 997 l 482 0 l 439 0 z "},"ﬃ":{"ha":918,"x_min":41,"x_max":818,"o":"m 774 0 l 774 721 l 818 721 l 818 0 l 774 0 m 774 880 l 774 997 l 818 997 l 818 880 l 774 880 m 379 681 l 379 721 l 479 721 l 479 822 q 507 965 479 925 q 613 1004 534 1004 q 646 1003 634 1004 l 646 966 q 634 967 642 966 q 621 968 625 968 q 541 937 559 968 q 522 823 522 907 l 522 721 l 644 721 l 644 681 l 522 681 l 522 0 l 479 0 l 479 681 l 379 681 m 41 681 l 41 721 l 142 721 l 142 822 q 169 965 142 925 q 275 1004 196 1004 q 309 1003 296 1004 l 309 966 q 296 967 304 966 q 283 968 288 968 q 203 937 221 968 q 184 823 184 907 l 184 721 l 306 721 l 306 681 l 184 681 l 184 0 l 142 0 l 142 681 l 41 681 z "},"ﬄ":{"ha":918,"x_min":41,"x_max":818,"o":"m 774 0 l 774 997 l 818 997 l 818 0 l 774 0 m 379 681 l 379 721 l 479 721 l 479 822 q 507 965 479 925 q 613 1004 534 1004 q 646 1003 634 1004 l 646 966 q 634 967 642 966 q 621 968 625 968 q 541 937 559 968 q 522 823 522 907 l 522 721 l 644 721 l 644 681 l 522 681 l 522 0 l 479 0 l 479 681 l 379 681 m 41 681 l 41 721 l 142 721 l 142 822 q 169 965 142 925 q 275 1004 196 1004 q 309 1003 296 1004 l 309 966 q 296 967 304 966 q 283 968 288 968 q 203 937 221 968 q 184 823 184 907 l 184 721 l 306 721 l 306 681 l 184 681 l 184 0 l 142 0 l 142 681 l 41 681 z "}}}
